<svg id="Layer_1" data-name="Layer 1" xmlns="http://www.w3.org/2000/svg" viewBox="0 0 797.963 486.826">
  <g>
    <path d="M101.359,33.5c-.154-14.869,5.723-24.083,13.691-29.142,7.861-4.992,32.515-9.337,41.862,8.784,6.1,11.825,3.692,16.052,5.42,34.991s8.366,20.927,15.1,43.883c5.28,18.007-24.3,27.566-49.912,26.74s-41.85-6.5-43.336-22.787C82.048,72.59,101.66,62.639,101.359,33.5Z" fill="#0f1011"></path>
    <path d="M116.62,74.61s7.694-4.171,5.775-25.211l15.948-3.108s-1.622,18.894,6.515,24.813Z" fill="#E98862"></path>
    <g opacity="0.15">
      <path d="M141.549,67.187,128.184,57.156l10.423-.2A28.732,28.732,0,0,0,141.549,67.187Z"></path>
    </g>
    <path d="M113.255,41.318c1.165,6.378,4.706,12.4,10.36,14.407A40.5,40.5,0,0,0,143,58.163c17.476-1.595,13.652-41.329,5.278-48.977S115.576,6.653,112.73,19.6C111.259,26.3,112.147,35.247,113.255,41.318Z" fill="#E98862"></path>
    <g>
      <circle cx="138.214" cy="34.719" r="1.449" fill="#0f1011"></circle>
      <circle cx="149.637" cy="33.677" r="1.449" fill="#0f1011"></circle>
      <path d="M152.113,30.566h0l-3.839-.013a.681.681,0,0,1,0-1.361h0l3.839.012a.681.681,0,0,1,0,1.362Z" fill="#0f1011"></path>
      <path d="M135.057,32.122a.681.681,0,0,1-.165-1.342l3.776-.945A.681.681,0,1,1,139,31.156l-3.776.946A.731.731,0,0,1,135.057,32.122Z" fill="#0f1011"></path>
      <path d="M138.989,46.124s5.354.515,9.091-.83c0,0,0,3.523-4.227,3.909S138.989,46.124,138.989,46.124Z" fill="#f8fcff"></path>
    </g>
    <path d="M124.871,24.659c-.38,28.853-3.161,40.061-3.161,40.061s-13.662-16.509-15.724-33.995c-1.933-16.391,10.07-26.19,18.222-28.091,30.98-7.227,33.131,15.371,33.131,15.371-2,7.708-35.823,12.491-35.823,12.491" fill="#0f1011"></path>
    <path d="M130.956,41.031a6.143,6.143,0,0,1-12.235,1.116,6.042,6.042,0,0,1,5.559-6.676C128.657,35.288,130.647,37.652,130.956,41.031Z" fill="#E98862"></path>
    <g opacity="0.15">
      <path d="M144.716,42.7a.5.5,0,0,1-.152-.976l2.939-.932-2.1-4.572a.5.5,0,1,1,.908-.417l2.341,5.085a.5.5,0,0,1-.3.686l-3.478,1.1A.5.5,0,0,1,144.716,42.7Z"></path>
    </g>
  </g>
  <path d="M797.963,486.826H0c8.744-22.3,24.891-41.213,47.653-46.824,33.3-8.2,68.535,14.342,101.758,5.867,18.876-4.809,33.736-18.828,49.351-30.468,58.909-43.921,139.637-56.9,209.344-33.655,36.437,12.146,69.64,33.385,106.966,42.419,48.266,11.681,98.741,1.994,148.374.4C711.786,423.006,781.049,442.7,797.963,486.826Z" fill="#f3f5fd"></path>
  <path d="M641.253,144.5H626.72a13.6,13.6,0,0,1-13.6-13.6V105.263c-15.43,8.6-43.87,18.77-90.35,16.64-26.45-1.21-47.5-6.28-63.13-11.85a167.046,167.046,0,0,1-16.15-6.7V130.9a13.6,13.6,0,0,1-13.6,13.6H415.355a27.041,27.041,0,0,0-27.04,27.041V465.009a21.817,21.817,0,0,0,21.817,21.817H646.477a21.816,21.816,0,0,0,21.816-21.817V171.538A27.041,27.041,0,0,0,641.253,144.5Z" fill="#dee8f5"></path>
  <path d="M596.973,110.053c-15.631,5.57-36.681,10.64-63.131,11.85-1.877.086-9.191.086-11.069,0-26.45-1.21-47.5-6.28-63.13-11.85a167.046,167.046,0,0,1-16.15-6.7v24.31c17.16,7.67,42.45,14.53,77.98,14.53h13.67c35.53,0,60.82-6.86,77.98-14.53v-24.31A167.152,167.152,0,0,1,596.973,110.053Z" fill="#c1d8ed"></path>
  <g>
    <path d="M172.681,211.054c19.951,87.888,38.015,176.367,52.271,265.368l-20.039,4.122c-22.031-87.4-40.359-175.827-56.719-264.453Z" fill="#E98862"></path>
    <path d="M131.443,216.5c1.832,87.312,1.7,174.82-2.27,262.074h-20.46c-3.968-87.252-4.1-174.763-2.27-262.074Z" fill="#E98862"></path>
    <path d="M155.642,486.639a4.107,4.107,0,0,0,4.076-4.427h0a4.108,4.108,0,0,0-2.658-3.529L132.617,470.5a3.461,3.461,0,0,0-2.872.32,19.112,19.112,0,0,1-11.468,3.4,17.031,17.031,0,0,1-8.82-3.222,1.547,1.547,0,0,0-2.528,1.2v11.952a2.678,2.678,0,0,0,2.689,2.678Z" fill="#c1d8ed"></path>
    <path d="M249.376,486.639a4.108,4.108,0,0,0,4.076-4.427h0a4.109,4.109,0,0,0-2.659-3.529L226.351,470.5a3.463,3.463,0,0,0-2.873.32,19.108,19.108,0,0,1-11.467,3.4A17.035,17.035,0,0,1,203.19,471a1.546,1.546,0,0,0-2.527,1.2v11.952a2.678,2.678,0,0,0,2.689,2.678Z" fill="#c1d8ed"></path>
    <path d="M93.77,178.8s-11.36,50.871-11.36,93.654S69.366,381.5,69.366,381.5s36.967-5.979,62.045,0c43.209,10.3,81.952-12.132,81.952-12.132L169.847,183.5Z" fill="#262626"></path>
  </g>
  <g>
    <path d="M290.417,131.171s8.208-3.989,14.374-2.459,3.276,4.185-1.21,5.129-14.343,2.479-14.343,2.479" fill="#E98862"></path>
    <path d="M295.211,130.983s15.218-1.6,15.377,2.062c0,0,.666,11.3-1.4,13.043-3.121,2.636-18.58.572-18.58.572Z" fill="#E98862"></path>
  </g>
  <g>
    <path d="M254.981,149.648H195.5a10.5,10.5,0,0,1-8.841-4.836L149.079,86.144l17.683-11.327,34.484,53.831h53.735Z" fill="#FFFC12"></path>
    <path d="M174.668,185.436c-4.189,9.63-86.52,13.63-87.62-3.31-.7-10.78,8.8-20.19,8.8-41.2s-19.33-47.84-3.58-63.59c4.57-4.57,12.461-7.52,22.08-7.53.72,5.61,34.78,5.63,35.04.13,1.3.02,2.31.04,2.94.07,33.18,1.43,18.6,39.19,18.28,66.93C170.218,169.4,178.988,175.516,174.668,185.436Z" fill="#FFFC12"></path>
    <path d="M149.388,69.936c-.26,5.5-3.25,13.59-12.48,14.2-12.3.81-21.84-8.72-22.56-14.33h.03C126.488,69.806,142.328,69.826,149.388,69.936Z" fill="#E98862"></path>
  </g>
  <g>
    <g>
      <circle cx="246.248" cy="139.148" r="60" fill="#FFFFFF"></circle>
      <g opacity="0.29">
        <circle cx="246.248" cy="139.148" r="38.896" fill="#fff"></circle>
      </g>
    </g>
    <path d="M233.517,153.041l3.629-5.626c2.875,2.2,5.391,3.328,8.066,3.328,3.207,0,4.617-1.331,4.617-3.905,0-5.821-14.934-5.716-14.934-15.926,0-6.562,4.546-10.743,11.715-10.743a14.028,14.028,0,0,1,10.77,4.8l-4.161,4.767c-2.057-1.871-3.8-2.855-6.163-2.855-2.721,0-4.2,1.1-4.2,3.639,0,5.395,14.934,4.924,14.934,15.738,0,6.5-4.3,11.2-12.58,11.2A18.823,18.823,0,0,1,233.517,153.041Zm9.951-38.416h5.519v8.148h-5.519Zm0,39.433h5.519V163h-5.519Z" fill="#fff"></path>
  </g>
  <path d="M309.183,146.092a3.444,3.444,0,0,1-.93.527c-1.793.371-6.315-.711-7.04-1.965-1.18-2.041-.448-9.415.593-12.091.977-2.5,5.843-1.453,6.482-1.335a.277.277,0,0,0,.061.016c1.327.364,2.2.932,2.237,1.806C310.586,133.05,311.256,144.34,309.183,146.092Z" fill="#E98862"></path>
  <g>
    <path d="M176.7,152.909s2.409-13.154,11.714-10.865c5.872,1.445,22.934-1.134,23.194,6.406.225,6.542-15.8,8.285-21.1,7.74C185.754,155.7,176.7,152.909,176.7,152.909Z" fill="#E98862"></path>
    <path d="M185.009,141.9s13.843-2.042,16.936-.728c2.738,1.164-4,4.8-4,4.8Z" fill="#E98862"></path>
  </g>
  <path d="M189.437,160.214l-61.879-1.888a10.9,10.9,0,0,1-9.323-5.834L87.683,94.238l19.31-10.127,27.594,52.615L190.1,138.42Z" fill="#FFFC12"></path>
  <path d="M613.123,96.892v12.7c-15.43,8.6-43.87,18.77-90.35,16.64-26.45-1.21-47.5-6.28-63.13-11.85a167.046,167.046,0,0,1-16.15-6.7V96.892Z" fill="#dee8f5"></path>
  <g>
    <rect x="419.397" y="460.844" width="115.041" height="25.982" rx="8.513" fill="#FFFFFF"></rect>
    <rect x="404.137" y="434.861" width="115.041" height="25.982" rx="8.513" fill="#FFFFFF"></rect>
    <rect x="419.397" y="408.879" width="115.041" height="25.982" rx="8.513" fill="#FFFFFF"></rect>
    <rect x="411.767" y="383.368" width="115.041" height="25.982" rx="8.513" fill="#FFFFFF"></rect>
    <rect x="396.507" y="357.386" width="115.041" height="25.982" rx="8.513" fill="#FFFFFF"></rect>
    <rect x="411.767" y="331.404" width="115.041" height="25.982" rx="8.513" fill="#FFFFFF"></rect>
  </g>
  <g>
    <rect x="427.027" y="305.248" width="115.041" height="25.982" rx="8.513" fill="#FFFFFF"></rect>
    <rect x="411.767" y="279.266" width="115.041" height="25.982" rx="8.513" fill="#FFFFFF"></rect>
  </g>
  <g>
    <rect x="427.027" y="254.11" width="115.041" height="25.982" rx="8.513" fill="#FFFFFF"></rect>
    <rect x="454.028" y="228.127" width="115.041" height="25.982" rx="8.513" fill="#FFFFFF"></rect>
  </g>
  <g>
    <g>
      <circle cx="606.239" cy="424.87" r="60" fill="#FFFFFF"></circle>
      <g opacity="0.29">
        <circle cx="606.239" cy="424.87" r="38.896" fill="#fff"></circle>
      </g>
    </g>
    <path d="M587.413,425.692l6.544-1.413c.475,3.592,1.459,6.165,3.351,8.057,2.267,2.267,4.205,2.324,6.026.5,4.116-4.116-6.518-14.6.7-21.82,4.64-4.641,10.811-4.382,15.88.687a14.028,14.028,0,0,1,4.222,11.009l-6.314.428c-.131-2.776-.668-4.706-2.338-6.376-1.925-1.924-3.745-2.192-5.542-.395-3.815,3.815,7.078,14.042-.569,21.689-4.593,4.593-10.956,4.876-16.812-.98A18.818,18.818,0,0,1,587.413,425.692Zm34.2-20.129,3.9,3.9-5.761,5.761-3.9-3.9ZM593.73,433.447l3.9,3.9-6.321,6.322-3.9-3.9Z" fill="#fff"></path>
  </g>
  <g>
    <rect x="525.623" y="311.349" width="115.041" height="25.982" rx="8.513" transform="translate(322.731 -290.02) rotate(37.947)" fill="#FFFFFF"></rect>
    <rect x="559.814" y="305.063" width="115.041" height="25.982" rx="8.513" transform="translate(326.094 -312.374) rotate(37.947)" fill="#FFFFFF"></rect>
  </g>
  <path d="M627.629,89.109c-.317.324-.791.789-1.429,1.368-11.019,7.032-41.819,23.44-92.361,25.752-1.877.086-9.193.086-11.07,0-50.542-2.312-81.342-18.72-92.361-25.752-.638-.578-1.112-1.044-1.429-1.368h0V111.6a4.763,4.763,0,0,0,2.324,4.105c16.426,9.741,45.035,20.811,90.166,20.811h13.67c45.131,0,73.74-11.07,90.166-20.811a4.763,4.763,0,0,0,2.324-4.105V89.109Z" fill="#dee8f5"></path>
  <path d="M627.6,88.753c0,10.763-44.458,27.442-99.3,27.442S428.984,95.328,429,88.753c.047-15.157,44.458-27.443,99.3-27.443S627.6,73.6,627.6,88.753Z" fill="#c1d8ed"></path>
  <rect x="487.608" y="85.323" width="81.391" height="6.859" fill="#dee8f5"></rect>
</svg>