<svg width="476" height="776" viewBox="0 0 476 776" fill="none" xmlns="http://www.w3.org/2000/svg">
<path d="M439.094 208.021L441.939 205.677C442.834 204.909 443.404 203.831 443.534 202.659C443.664 201.487 443.344 200.309 442.639 199.364C442.258 198.889 441.785 198.496 441.247 198.21C440.71 197.924 440.12 197.751 439.513 197.7C438.906 197.65 438.296 197.723 437.718 197.916C437.141 198.11 436.609 198.418 436.155 198.824L402.389 228.8L411.723 239.864C414.621 243.301 418.481 245.794 422.805 247.024C427.13 248.253 431.724 248.163 435.997 246.764L455.341 240.394C456.352 240.082 457.225 239.431 457.812 238.549C458.398 237.668 458.662 236.611 458.559 235.558C458.294 233.479 439.094 208.021 439.094 208.021Z" fill="#E98862"></path>
<path d="M418.912 208.252L325.764 237.116L268.964 140.893L220.436 169.268L292.044 285L292.498 285.579C296.253 290.235 301.366 293.604 307.126 295.217C312.886 296.831 319.006 296.607 324.633 294.579L435.665 254.361L418.912 208.252Z" fill="#FFFC12"></path>
<path d="M475.76 714.618L398.097 718.267L368.143 208.367L445.806 204.718L475.76 714.618Z" fill="#FFFC12"></path>
<path opacity="0.5" d="M475.76 714.618L398.097 718.267L368.143 208.367L445.806 204.718L475.76 714.618Z" fill="white"></path>
<path d="M443.176 148.525L365.513 152.175L368.153 208.354L445.816 204.704L443.176 148.525Z" fill="#262626"></path>
<path d="M475.762 714.617C475.762 714.617 465.106 733.117 455.503 749.666C447.886 762.788 440.932 774.68 440.483 775.123C440.021 775.585 431.34 764.042 421.956 751.239C410.549 735.687 398.095 718.266 398.095 718.266L475.762 714.617Z" fill="#FFFC12"></path>
<path opacity="0.9" d="M475.762 714.617C475.762 714.617 465.106 733.117 455.503 749.666C447.886 762.788 440.932 774.68 440.483 775.123C440.021 775.585 431.34 764.042 421.956 751.239C410.549 735.687 398.095 718.266 398.095 718.266L475.762 714.617Z" fill="white"></path>
<path d="M455.5 749.666C447.883 762.788 440.929 774.68 440.48 775.123C440.018 775.585 431.337 764.042 421.953 751.239L455.5 749.666Z" fill="#262626"></path>
<path d="M451.571 715.606L420.25 206.02L423.793 205.842L455.114 715.428L451.571 715.606Z" fill="white"></path>
<path d="M421.187 717.046L389.865 207.46L393.409 207.282L424.731 716.868L421.187 717.046Z" fill="white"></path>
<path d="M434.126 231.8C434.124 230.821 434.443 229.868 435.033 229.087C435.623 228.306 436.452 227.739 437.394 227.472C437.36 227.401 437.229 227.25 437.357 227.199L433.667 226.545C432.576 226.376 431.583 225.818 430.871 224.974C430.159 224.129 429.777 223.056 429.796 221.952C429.849 220.862 430.305 219.831 431.076 219.059C431.846 218.286 432.876 217.828 433.966 217.772C433.94 217.737 433.949 217.687 433.936 217.645L432.419 217.376C431.391 217.212 430.452 216.699 429.759 215.922C429.067 215.146 428.664 214.154 428.619 213.114C428.604 212.462 428.734 211.814 429 211.218C429.266 210.623 429.661 210.093 430.156 209.668C430.651 209.243 431.234 208.934 431.863 208.761C432.493 208.589 433.152 208.559 433.795 208.672L437.295 209.292C437.295 209.273 437.279 209.258 437.282 209.239C437.285 209.22 437.311 209.201 437.318 209.178C436.397 208.792 435.636 208.104 435.158 207.228C434.68 206.352 434.514 205.339 434.688 204.356C434.97 201.789 438.002 200.835 440.264 201.235L447.292 203.052C448.376 203.333 449.374 203.877 450.198 204.637C451.021 205.397 451.644 206.348 452.011 207.406C455.192 216.563 462.929 240.678 455.711 239.398L437.936 236.249C436.897 236.036 435.958 235.483 435.268 234.678C434.578 233.872 434.176 232.86 434.126 231.8V231.8Z" fill="#E98862"></path>
<path d="M138.771 46.4051C138.771 46.4051 128.298 37.34 126.849 17.992C125.727 3.01197 138.771 13.542 138.771 13.542C138.771 13.542 138.071 2.74806 145.789 4.33206C153.507 5.91606 157.125 17.448 157.125 17.448" fill="#0C0C0C"></path>
<path d="M186 8.28394C186 8.28394 224.4 15.0218 206.906 66.4968H196.49" fill="#0C0C0C"></path>
<path d="M213.421 712.469C213.421 712.469 225.709 733.223 209.99 748.917C194.271 764.611 209.59 774.643 209.59 774.643L273.004 718.443L244.924 686.76L213.421 712.469Z" fill="#FFFC12"></path>
<path d="M105.522 303.373C105.522 303.373 98.3818 509.262 99.2898 519.31C102.724 557.319 214.581 729.552 214.581 729.552L256.233 693.989L203.046 586.246L169.42 511.174C169.42 511.174 175.208 446.6 190.81 386.638C198.792 355.863 203.596 324.351 205.147 292.596V292.596L105.522 303.373Z" fill="#262626"></path>
<path d="M211.37 730.7C211.37 730.7 206.801 754.383 184.628 755.7C162.455 757.017 167.263 774.685 167.263 774.685H252V732.35L211.37 730.7Z" fill="#FFFC12"></path>
<path d="M257.744 298.7C257.744 298.7 257.478 291.581 257.534 307.73C257.744 367.966 255.734 745.818 255.734 745.818L200.054 745.351L166.325 296.251L257.744 298.7Z" fill="#262626"></path>
<path d="M177.763 449.338L173.197 379.509C173.197 379.509 168.507 408.539 168.507 433.561C168.507 445.791 171.026 494.215 171.026 494.215L177.763 449.338Z" fill="#0A0A0A"></path>
<path d="M185.19 546.382L196.772 701.605L185.93 684.163L174.848 523.294L185.19 546.382Z" fill="#0A0A0A"></path>
<path d="M142.751 120.011C142.921 119.989 144.812 151.371 181.269 148.635C206.508 146.744 215.507 119.967 216.085 119.967C213.364 119.388 210.001 118.511 208.665 118.21C205.752 117.534 203.114 115.987 201.102 113.775C199.09 111.563 197.799 108.791 197.401 105.827C196.662 101.379 197.915 78.6268 197.529 74.1208L158.788 82.7689C159.329 92.2689 163.118 114.309 149.839 118.209C147.629 118.855 145.249 119.448 142.751 120.011Z" fill="#E98862"></path>
<path opacity="1" d="M158.245 109.2C158.851 107.244 159.242 105.228 159.41 103.187C159.836 98.5298 159.751 93.8403 159.157 89.2018C167.031 88.1387 174.449 84.8887 180.569 79.8208C181.288 82.4778 185.244 94.0868 184.149 96.6118C182.078 101.388 172.349 109.2 158.245 109.2Z" fill="#0C0C0C"></path>
<path d="M165.121 101.622C180.462 101.276 199.36 92.8639 201.011 72.1809L202.5 53.5189C204.15 32.8359 194.625 15.2029 175.151 13.6489C155.677 12.0949 139.784 27.6999 138.133 48.3829L137.474 56.6449C137.297 59.4854 137.314 62.3347 137.525 65.1729C138.025 72.6789 138.817 84.0929 143.354 92.0819C147.637 99.6249 155.32 101.843 165.121 101.622Z" fill="#E98862"></path>
<path opacity="1" d="M159.313 82.2259C156.156 82.1576 153.06 81.3486 150.274 79.864C150.216 79.8346 150.165 79.7941 150.123 79.7449C150.081 79.6957 150.049 79.6388 150.029 79.5772C150.009 79.5156 150.001 79.4507 150.006 79.3862C150.011 79.3216 150.029 79.2587 150.058 79.201C150.087 79.1433 150.128 79.0918 150.177 79.0497C150.226 79.0077 150.283 78.9757 150.345 78.9556C150.406 78.9356 150.471 78.9279 150.536 78.9329C150.6 78.938 150.663 78.9556 150.721 78.9849C156.733 82.0389 162.38 82.03 167.049 78.957C167.143 78.8916 167.24 78.8315 167.341 78.7769C167.458 78.7234 167.591 78.7177 167.712 78.761C167.833 78.8044 167.933 78.8934 167.989 79.0091C168.046 79.1248 168.055 79.2579 168.014 79.3801C167.974 79.5022 167.887 79.6037 167.773 79.6629C167.736 79.6829 167.673 79.7249 167.591 79.7809C165.136 81.4017 162.254 82.253 159.313 82.2259V82.2259Z" fill="#0C0C0C"></path>
<path opacity="1" d="M159.148 86.8999C158.578 86.8962 158.009 86.8443 157.448 86.7449C157.384 86.7337 157.323 86.7102 157.268 86.6754C157.214 86.6407 157.166 86.5955 157.129 86.5425C157.092 86.4895 157.066 86.4296 157.051 86.3664C157.037 86.3031 157.036 86.2377 157.047 86.1739C157.058 86.11 157.082 86.0491 157.116 85.9944C157.151 85.9397 157.196 85.8924 157.249 85.8551C157.302 85.8179 157.362 85.7915 157.425 85.7774C157.489 85.7633 157.554 85.7617 157.618 85.7729C161 86.3639 162.73 84.9119 162.802 84.8499C162.901 84.7675 163.028 84.7271 163.156 84.7371C163.284 84.7471 163.403 84.8068 163.488 84.9035C163.573 85.0002 163.617 85.1261 163.61 85.2545C163.603 85.383 163.546 85.5036 163.452 85.5909C162.212 86.5117 160.691 86.9743 159.148 86.8999V86.8999Z" fill="#0C0C0C"></path>
<path d="M143.91 58.0327C145.239 58.0327 146.316 56.9555 146.316 55.6267C146.316 54.2979 145.239 53.2207 143.91 53.2207C142.581 53.2207 141.504 54.2979 141.504 55.6267C141.504 56.9555 142.581 58.0327 143.91 58.0327Z" fill="#0C0C0C"></path>
<path d="M166.209 58.1838C167.538 58.1838 168.615 57.1066 168.615 55.7778C168.615 54.449 167.538 53.3718 166.209 53.3718C164.88 53.3718 163.803 54.449 163.803 55.7778C163.803 57.1066 164.88 58.1838 166.209 58.1838Z" fill="#0C0C0C"></path>
<path d="M199.3 78.3859C205.218 78.8579 210.521 72.9088 210.993 66.9908C211.465 61.0728 206.928 57.4268 201.01 56.9548L197.645 60.6769L194.212 77.9769L199.3 78.3859Z" fill="#E98862"></path>
<path d="M97.455 189.1C98.604 202.59 104.19 286.756 105.293 303.373H257.453C258.313 288.386 262.172 222.852 265.432 193.545C268.543 165.578 274.648 150.565 270.173 142.297C262.861 128.784 242.881 121.988 229.257 120.143C220.937 119.017 208.425 118.21 208.425 118.21C208.425 118.21 207.365 139.642 182.103 140.835C147.714 142.457 150.01 118.21 149.84 118.21C137.354 118.21 113.724 121.197 104.656 127.363C84.265 141.229 95.018 160.511 97.455 189.1Z" fill="#FFFC12"></path>
<path d="M194.043 68.4731C194.043 68.4731 194.006 39.0481 185.243 36.6441C179.409 35.0441 164.502 42.472 151.384 39.044C145.646 37.544 140.031 38.6151 139.284 41.3231C138.984 42.3951 136.414 26.529 146.312 15.282C154.192 6.32804 178.088 5.251 188.671 9.07C217.971 19.643 202.139 58.3231 202.139 58.3231L200.13 68.3321L194.043 68.4731Z" fill="#0C0C0C"></path>
<g opacity="1">
<path opacity="1" d="M156.2 75.074H156.162C154.255 74.927 151.072 74.467 151.18 73.04C151.273 71.857 155.493 59.34 155.98 57.922C156 57.8614 156.033 57.8055 156.075 57.7573C156.117 57.7092 156.168 57.6697 156.225 57.6413C156.283 57.613 156.345 57.5962 156.409 57.5919C156.473 57.5876 156.537 57.596 156.597 57.6164C156.658 57.6369 156.714 57.6692 156.762 57.7113C156.81 57.7534 156.85 57.8046 156.878 57.8619C156.906 57.9193 156.923 57.9817 156.927 58.0455C156.932 58.1094 156.923 58.1734 156.903 58.234C155.029 63.775 152.22 72.311 152.157 73.115C152.319 73.466 154.267 73.949 156.241 74.102C156.368 74.1101 156.486 74.1672 156.571 74.2613C156.656 74.3555 156.701 74.4792 156.697 74.6061C156.692 74.7329 156.638 74.8529 156.546 74.9405C156.454 75.0281 156.332 75.0763 156.205 75.0749L156.2 75.074Z" fill="#0C0C0C"></path>
</g>
<path d="M150.671 48.24C149.132 47.6041 147.452 47.3858 145.802 47.6071C144.96 47.7115 144.14 47.9438 143.369 48.296C142.582 48.6502 141.843 49.1018 141.169 49.64L141.115 49.6801C140.941 49.8108 140.722 49.869 140.506 49.8423C140.29 49.8156 140.093 49.7062 139.955 49.537C139.818 49.3678 139.752 49.152 139.77 48.9349C139.789 48.7179 139.891 48.5165 140.055 48.373C140.802 47.6775 141.635 47.0793 142.533 46.593C143.443 46.0953 144.423 45.737 145.44 45.53C146.458 45.3115 147.501 45.2337 148.54 45.2989C149.61 45.3548 150.667 45.5633 151.678 45.918C151.993 46.0305 152.252 46.2637 152.396 46.5663C152.54 46.8689 152.559 47.2162 152.447 47.5323C152.336 47.8485 152.104 48.1077 151.802 48.253C151.5 48.3984 151.152 48.4182 150.836 48.308L150.747 48.2729L150.671 48.24Z" fill="#0C0C0C"></path>
<path d="M164.8 46.1192C165.811 45.7645 166.868 45.556 167.938 45.5002C168.977 45.4352 170.02 45.5133 171.038 45.7322C172.055 45.9389 173.035 46.2975 173.945 46.7962C174.843 47.2825 175.675 47.8806 176.423 48.5762C176.585 48.7199 176.686 48.9207 176.704 49.1368C176.722 49.3528 176.656 49.5675 176.519 49.7361C176.383 49.9047 176.187 50.0142 175.972 50.0418C175.757 50.0694 175.539 50.0129 175.365 49.8842L175.309 49.8422C174.635 49.3039 173.896 48.8524 173.109 48.4982C172.338 48.1462 171.517 47.9134 170.676 47.8081C169.84 47.6926 168.991 47.6926 168.155 47.8081C167.347 47.9127 166.557 48.1253 165.806 48.4401L165.735 48.4711C165.428 48.607 165.079 48.6155 164.766 48.4944C164.453 48.3734 164.2 48.1327 164.064 47.8256C163.928 47.5185 163.92 47.17 164.041 46.8567C164.162 46.5434 164.403 46.2911 164.71 46.1552C164.733 46.1422 164.766 46.1302 164.8 46.1192Z" fill="#0C0C0C"></path>
<path d="M166.855 16.799C168.636 10.4365 166.575 4.29791 162.252 3.08809C157.929 1.87828 152.981 6.05536 151.2 12.4179C149.42 18.7804 151.481 24.919 155.804 26.1288C160.126 27.3386 165.074 23.1615 166.855 16.799Z" fill="#0C0C0C"></path>
<path d="M91.5269 325.361C92.1543 325.145 92.7262 324.794 93.2013 324.331C93.6763 323.868 94.0428 323.305 94.2744 322.683C94.5059 322.062 94.5967 321.396 94.5402 320.735C94.4838 320.075 94.2815 319.434 93.948 318.861L96.879 323.882C97.4525 324.912 98.3959 325.686 99.5183 326.047C100.641 326.408 101.858 326.329 102.925 325.827C103.467 325.549 103.946 325.163 104.333 324.693C104.721 324.224 105.009 323.68 105.18 323.096C105.35 322.511 105.4 321.898 105.326 321.294C105.251 320.69 105.055 320.107 104.748 319.581L106.074 321.854C106.592 322.776 107.412 323.491 108.395 323.879C109.379 324.266 110.467 324.302 111.474 323.981C112.101 323.765 112.673 323.414 113.148 322.951C113.623 322.488 113.99 321.925 114.221 321.303C114.453 320.682 114.543 320.016 114.487 319.355C114.43 318.694 114.228 318.054 113.894 317.481L111.57 313.5C111.867 314.008 112.26 314.453 112.729 314.809C113.198 315.165 113.732 315.426 114.301 315.575C114.87 315.725 115.464 315.761 116.047 315.681C116.63 315.601 117.192 315.408 117.7 315.111C120.051 313.939 119.9 310.711 118.718 308.69L114.344 300.544L117.233 302.832C118.172 303.545 119.347 303.875 120.52 303.755C121.693 303.636 122.777 303.076 123.553 302.188C123.937 301.716 124.222 301.17 124.388 300.584C124.555 299.999 124.6 299.385 124.522 298.781C124.443 298.177 124.243 297.596 123.932 297.072C123.621 296.548 123.207 296.093 122.715 295.735L96.4229 279.153L77.452 280.488C74.7027 284.045 73.0785 288.343 72.7876 292.829C72.4966 297.316 73.5521 301.787 75.8189 305.67L86.119 323.24C86.6378 324.163 87.4594 324.878 88.4449 325.264C89.4304 325.651 90.5192 325.685 91.5269 325.361V325.361Z" fill="#E98862"></path>
<path d="M108.613 308.513C108.602 308.415 108.625 308.316 108.679 308.234C108.733 308.151 108.814 308.091 108.908 308.062C109.002 308.033 109.104 308.038 109.195 308.076C109.285 308.115 109.36 308.183 109.405 308.271L112.305 313.789C112.332 313.838 112.349 313.892 112.355 313.947C112.361 314.003 112.356 314.059 112.34 314.113C112.324 314.166 112.297 314.216 112.261 314.26C112.226 314.303 112.182 314.339 112.133 314.365C112.083 314.391 112.029 314.407 111.973 314.411C111.917 314.416 111.861 314.41 111.808 314.393C111.754 314.376 111.705 314.348 111.663 314.312C111.62 314.275 111.585 314.231 111.56 314.181L108.66 308.663C108.635 308.616 108.62 308.565 108.613 308.513Z" fill="#E98862"></path>
<path d="M100.811 312.621C100.8 312.524 100.824 312.426 100.878 312.344C100.931 312.262 101.012 312.201 101.105 312.173C101.199 312.144 101.299 312.148 101.39 312.186C101.48 312.223 101.555 312.29 101.601 312.377L105.634 319.916C105.66 319.965 105.677 320.018 105.682 320.073C105.688 320.128 105.683 320.184 105.667 320.237C105.651 320.29 105.625 320.339 105.59 320.382C105.555 320.425 105.512 320.461 105.463 320.487C105.414 320.513 105.361 320.529 105.306 320.535C105.251 320.541 105.195 320.535 105.142 320.52C105.089 320.504 105.04 320.478 104.997 320.443C104.954 320.408 104.918 320.365 104.892 320.316L100.858 312.777C100.833 312.728 100.817 312.675 100.811 312.621V312.621Z" fill="#E98862"></path>
<path d="M92.3338 317.023C92.3225 316.924 92.3462 316.825 92.4008 316.743C92.4554 316.66 92.5374 316.599 92.6323 316.571C92.7272 316.543 92.8291 316.549 92.9199 316.589C93.0107 316.628 93.0847 316.698 93.1289 316.787L94.9498 320.393C94.9766 320.442 94.9933 320.497 94.9987 320.553C95.0042 320.609 94.9983 320.665 94.9815 320.719C94.9647 320.773 94.9373 320.822 94.901 320.865C94.8646 320.908 94.8199 320.944 94.7697 320.969C94.7195 320.994 94.6647 321.01 94.6086 321.013C94.5524 321.017 94.4961 321.01 94.4428 320.992C94.3896 320.973 94.3406 320.945 94.2987 320.907C94.2567 320.869 94.2228 320.824 94.1988 320.773L92.3768 317.167C92.3543 317.122 92.3398 317.073 92.3338 317.023V317.023Z" fill="#E98862"></path>
<path opacity="0.2" d="M108.613 308.513C108.602 308.415 108.625 308.316 108.679 308.234C108.733 308.151 108.814 308.091 108.908 308.062C109.002 308.033 109.104 308.038 109.195 308.076C109.285 308.115 109.36 308.183 109.405 308.271L112.305 313.789C112.332 313.838 112.349 313.892 112.355 313.947C112.361 314.003 112.356 314.059 112.34 314.113C112.324 314.166 112.297 314.216 112.261 314.26C112.226 314.303 112.182 314.339 112.133 314.365C112.083 314.391 112.029 314.407 111.973 314.411C111.917 314.416 111.861 314.41 111.808 314.393C111.754 314.376 111.705 314.348 111.663 314.312C111.62 314.275 111.585 314.231 111.56 314.181L108.66 308.663C108.635 308.616 108.62 308.565 108.613 308.513Z" fill="#0C0C0C"></path>
<path opacity="0.2" d="M100.811 312.621C100.8 312.524 100.824 312.426 100.878 312.344C100.931 312.262 101.012 312.201 101.105 312.173C101.199 312.144 101.299 312.148 101.39 312.186C101.48 312.223 101.555 312.29 101.601 312.377L105.634 319.916C105.66 319.965 105.677 320.018 105.682 320.073C105.688 320.128 105.683 320.184 105.667 320.237C105.651 320.29 105.625 320.339 105.59 320.382C105.555 320.425 105.512 320.461 105.463 320.487C105.414 320.513 105.361 320.529 105.306 320.535C105.251 320.541 105.195 320.535 105.142 320.52C105.089 320.504 105.04 320.478 104.997 320.443C104.954 320.408 104.918 320.365 104.892 320.316L100.858 312.777C100.833 312.728 100.817 312.675 100.811 312.621V312.621Z" fill="#0C0C0C"></path>
<path opacity="0.2" d="M92.3338 317.023C92.3225 316.924 92.3462 316.825 92.4008 316.743C92.4554 316.66 92.5374 316.599 92.6323 316.571C92.7272 316.543 92.8291 316.549 92.9199 316.589C93.0107 316.628 93.0847 316.698 93.1289 316.787L94.9498 320.393C94.9766 320.442 94.9933 320.497 94.9987 320.553C95.0042 320.609 94.9983 320.665 94.9815 320.719C94.9647 320.773 94.9373 320.822 94.901 320.865C94.8646 320.908 94.8199 320.944 94.7697 320.969C94.7195 320.994 94.6647 321.01 94.6086 321.013C94.5524 321.017 94.4961 321.01 94.4428 320.992C94.3896 320.973 94.3406 320.945 94.2987 320.907C94.2567 320.869 94.2228 320.824 94.1988 320.773L92.3768 317.167C92.3543 317.122 92.3398 317.073 92.3338 317.023V317.023Z" fill="#0C0C0C"></path>
<path d="M131.582 179.317C131.582 179.317 119.369 122.062 105.515 126.829C94.5148 130.612 11.9278 198.674 9.42182 201.141C3.90077 206.575 0.764582 213.98 0.703071 221.727C0.641559 229.474 3.65976 236.927 9.09382 242.449L73.3789 316L110.479 281.224L61.6928 228.508L131.582 179.317Z" fill="#FFFC12"></path>
<path d="M98.3 204.114C98.2015 204.114 98.1066 204.077 98.0343 204.01C97.962 203.943 97.9176 203.851 97.91 203.753L96.277 181.116C96.2731 181.065 96.2794 181.013 96.2955 180.964C96.3116 180.916 96.3372 180.871 96.3707 180.832C96.4042 180.793 96.4451 180.761 96.491 180.738C96.5368 180.715 96.5867 180.701 96.6379 180.697C96.6893 180.692 96.7412 180.698 96.7904 180.713C96.8396 180.729 96.8851 180.754 96.9243 180.788C96.9635 180.822 96.9954 180.863 97.0184 180.909C97.0414 180.955 97.0548 181.005 97.058 181.057L98.691 203.694C98.6948 203.745 98.6885 203.797 98.6725 203.845C98.6564 203.894 98.6308 203.939 98.5973 203.978C98.5638 204.017 98.5229 204.049 98.477 204.072C98.4312 204.095 98.3812 204.109 98.3299 204.113L98.3 204.114Z" fill="#0C0C0C"></path>
<path d="M261.986 238.632H261.957C261.853 238.627 261.756 238.581 261.687 238.504C261.617 238.427 261.581 238.326 261.586 238.222L264.286 184.008C264.293 183.905 264.34 183.809 264.417 183.74C264.493 183.671 264.593 183.634 264.696 183.637C264.747 183.639 264.798 183.652 264.844 183.674C264.89 183.696 264.932 183.727 264.967 183.765C265.001 183.803 265.028 183.847 265.045 183.896C265.062 183.944 265.07 183.996 265.067 184.047L262.367 238.261C262.362 238.359 262.32 238.453 262.249 238.521C262.179 238.59 262.084 238.63 261.986 238.632V238.632Z" fill="#0C0C0C"></path>
</svg>