<svg id="Layer_1" data-name="Layer 1" xmlns="http://www.w3.org/2000/svg" viewBox="0 0 1161.267 719.529">
  <path d="M1161.267,719.529H0c12.725-32.449,36.219-59.977,69.349-68.144,48.457-11.93,99.738,20.875,148.088,8.54,27.469-7,49.094-27.4,71.819-44.341,85.729-63.917,203.212-82.808,304.656-48.977,53.027,17.675,101.344,48.585,155.663,61.726,70.24,17,143.695,2.9,215.929.579C1035.854,626.652,1136.651,655.317,1161.267,719.529Z" fill="#f3f5fd"></path>
  <path d="M1123.768,719.529H962.674c-11.817-9.431-12.632-30.679-.384-40.168,9.441-7.312,23.714-5.356,32.587,2.25a31.474,31.474,0,0,1-.094-17.358c2.885-10.229,9.3-20.622,19.092-24.759,24.991-10.545,42.748,11.549,46.307,23.9,6.4-9.41,20.712-14.383,29.7-8.049,11.381,8.022,10.865,20.67,1.787,29.749,12.1-2.256,21.206-.516,29.6,8.489C1127.648,700.441,1128.625,712.122,1123.768,719.529Z" fill="#8ddbe0"></path>
  <g>
    <path d="M866.926,443.757c-19.95,87.888-38.014,176.366-52.271,265.368l20.04,4.122c22.031-87.4,40.359-175.827,56.719-264.453Z" fill="#E98862"></path>
    <path d="M908.165,449.2c-1.833,87.313-1.7,174.821,2.27,262.074H930.9c3.968-87.252,4.1-174.762,2.27-262.074Z" fill="#E98862"></path>
    <path d="M883.966,719.342a4.109,4.109,0,0,1-4.077-4.427h0a4.109,4.109,0,0,1,2.659-3.529l24.443-8.187a3.465,3.465,0,0,1,2.872.319,19.1,19.1,0,0,0,11.468,3.4,17.026,17.026,0,0,0,8.82-3.222,1.547,1.547,0,0,1,2.528,1.2v11.952a2.678,2.678,0,0,1-2.689,2.678Z" fill="#c1d8ed"></path>
    <path d="M790.232,719.342a4.108,4.108,0,0,1-4.076-4.427h0a4.106,4.106,0,0,1,2.658-3.529l24.443-8.187a3.464,3.464,0,0,1,2.872.319,19.1,19.1,0,0,0,11.468,3.4,17.029,17.029,0,0,0,8.821-3.222,1.546,1.546,0,0,1,2.527,1.2v11.952a2.678,2.678,0,0,1-2.689,2.678Z" fill="#c1d8ed"></path>
    <path d="M945.838,411.506s11.36,50.871,11.36,93.653S970.241,614.2,970.241,614.2s-36.966-5.98-62.044,0c-43.209,10.3-81.952-12.132-81.952-12.132L869.761,416.2Z" fill="#262626"></path>
  </g>
  <g>
    <g>
      <path d="M922.321,306.978s-7.732-4.1-6.006-25.156l-15.976-2.962s1.795,18.878-6.287,24.872Z" fill="#E98862"></path>
      <g opacity="0.15">
        <path d="M897.325,299.785,910.6,289.632l-10.425-.108A28.736,28.736,0,0,1,897.325,299.785Z"></path>
      </g>
      <path d="M925.38,273.657c-1.106,6.389-4.592,12.438-10.227,14.5a40.515,40.515,0,0,1-19.358,2.615c-17.489-1.434-14.03-41.2-5.726-48.926s32.673-2.833,35.637,10.087C927.239,258.617,926.433,267.577,925.38,273.657Z" fill="#E98862"></path>
      <g>
        <circle cx="900.362" cy="267.287" r="1.449" fill="#0f1011"></circle>
        <circle cx="888.93" cy="266.35" r="1.449" fill="#0f1011"></circle>
        <path d="M886.42,263.262a.681.681,0,0,1-.009-1.361l3.839-.049h.009a.681.681,0,0,1,.008,1.362l-3.839.048Z" fill="#0f1011"></path>
        <path d="M903.49,264.662a.679.679,0,0,1-.16-.019l-3.785-.911a.681.681,0,1,1,.318-1.324l3.785.911a.681.681,0,0,1-.158,1.343Z" fill="#0f1011"></path>
      </g>
      <path d="M915.379,287.4c.332,1.062.564,1.525,1.52.956,3.757-2.231,11.21-7.088,14.09-25.282,2.58-16.3-7.476-23.026-15.5-25.425-6.913-2.068-21.307-.607-29.073,3.616-5.762,3.133-1.546,11.535-1.546,11.535,2.883.133,2.252-7.521,9.056-7.521,5.259,0,9.893,7.782,14.817,7.989,4.508.19,5.434,2.938,5.275,4.7C913.052,268.646,914.205,283.64,915.379,287.4Z" fill="#0f1011"></path>
      <path d="M907.9,270.833a6.143,6.143,0,0,0,12.245,1,6.041,6.041,0,0,0-5.62-6.624C910.146,265.07,908.177,267.452,907.9,270.833Z" fill="#E98862"></path>
      <g opacity="0.15">
        <path d="M893.929,275.324a.5.5,0,0,1-.146-.022l-3.488-1.071a.5.5,0,0,1-.31-.683l2.294-5.107a.5.5,0,0,1,.912.41l-2.061,4.59,2.946.905a.5.5,0,0,1-.147.978Z"></path>
      </g>
      <path d="M899.691,278.7s-5.348.564-9.1-.746c0,0,.029,3.523,4.262,3.87S899.691,278.7,899.691,278.7Z" fill="#fff"></path>
    </g>
    <path d="M885.941,241.8c-5.185,3.472-4.165,10.124-3.192,15.9h6.418l2.692-9.343,3.284,9.343,25.022.865-3.018-12.409" fill="#0f1011"></path>
    <circle cx="932.996" cy="278.86" r="14.006" fill="#0f1011"></circle>
  </g>
  <g>
    <path d="M238.535,307.153s7.732-4.1,6.006-25.156l15.976-2.963s-1.8,18.879,6.287,24.872Z" fill="#E98862"></path>
    <g opacity="0.15">
      <path d="M263.531,299.96l-13.273-10.154,10.425-.108A28.741,28.741,0,0,0,263.531,299.96Z"></path>
    </g>
    <path d="M235.476,273.832c1.106,6.388,4.592,12.438,10.227,14.5,6.69,2.45,11.645,2.616,19.358,2.616,10.525,0,10.177-10.977,10.472-22.039.3-11.105-.586-23.018-4.746-26.888-8.3-7.724-32.673-2.833-35.637,10.087C233.617,258.791,234.423,267.751,235.476,273.832Z" fill="#E98862"></path>
    <path d="M282.83,237.422c0-5.282-6.574-13.937-24.111-2l-.018.012a49.861,49.861,0,0,0-13.529,1.479c-8.02,2.4-18.076,9.123-15.5,25.425,2.881,18.195,10.333,23.051,14.089,25.283.958.568,1.189.106,1.521-.957a81.016,81.016,0,0,0,2.229-11.969,65.815,65.815,0,0,0,.889-11.9c0-1.766.009-8.2,8.772-8.273,4.929-.041,3.087.155,8.346.155.75,0,1.412-.034,2.022-.088l.007,0C285.71,254.588,282.83,242.705,282.83,237.422Z" fill="#0f1011"></path>
    <g>
      <circle cx="260.494" cy="267.462" r="1.449" fill="#0f1011"></circle>
      <circle cx="271.926" cy="266.524" r="1.449" fill="#0f1011"></circle>
      <path d="M274.436,263.436h-.009l-3.838-.048a.681.681,0,0,1,.008-1.361h.009l3.839.048a.681.681,0,0,1-.009,1.361Z" fill="#0f1011"></path>
      <path d="M257.366,264.836a.681.681,0,0,1-.158-1.343l3.785-.911a.681.681,0,0,1,.318,1.325l-3.785.91A.679.679,0,0,1,257.366,264.836Z" fill="#0f1011"></path>
    </g>
    <path d="M252.957,271.007a6.143,6.143,0,0,1-12.245,1,6.042,6.042,0,0,1,5.62-6.624C250.71,265.244,252.679,267.626,252.957,271.007Z" fill="#E98862"></path>
    <g opacity="0.15">
      <path d="M266.926,275.5a.5.5,0,0,1-.146-.978l2.946-.9-2.061-4.591a.5.5,0,1,1,.912-.41l2.294,5.107a.506.506,0,0,1,0,.412.5.5,0,0,1-.309.271l-3.488,1.071A.468.468,0,0,1,266.926,275.5Z"></path>
    </g>
    <path d="M261.165,278.873s5.348.564,9.1-.746c0,0-.029,3.523-4.262,3.87S261.165,278.873,261.165,278.873Z" fill="#fff"></path>
  </g>
  <g>
    <path d="M307.632,238.673l-2.875-2.583q1.947-2.166,3.924-4.3l2.836,2.624Q309.561,236.527,307.632,238.673Z" fill="#c1d8ed"></path>
    <path d="M319.431,226.1l-2.759-2.7c2.7-2.759,5.472-5.5,8.234-8.163l2.68,2.784C324.851,220.646,322.107,223.366,319.431,226.1Zm526.344-8.515c-2.749-2.638-5.572-5.271-8.392-7.824l2.593-2.865c2.848,2.579,5.7,5.237,8.475,7.9Zm-509.8-7.411-2.6-2.86c2.849-2.588,5.775-5.168,8.695-7.668l2.514,2.935C341.692,205.054,338.8,207.608,335.972,210.171Zm492.792-7.988c-2.9-2.478-5.877-4.94-8.837-7.319l2.421-3.012c2.991,2.4,5.993,4.889,8.924,7.392Zm-475.352-6.941-2.426-3.008c2.988-2.409,6.061-4.813,9.131-7.142l2.336,3.079C359.412,190.477,356.37,192.856,353.412,195.242Zm457.467-7.433c-3.043-2.3-6.157-4.583-9.255-6.784l2.238-3.15c3.129,2.223,6.274,4.528,9.347,6.851ZM371.7,181.371l-2.242-3.147c3.139-2.238,6.349-4.453,9.539-6.586l2.148,3.213C377.986,176.962,374.808,179.156,371.7,181.371Zm420.471-6.85c-3.167-2.11-6.412-4.2-9.645-6.218l2.045-3.28c3.265,2.037,6.543,4.15,9.742,6.282Zm-401.392-5.9-2.049-3.276c3.272-2.047,6.608-4.066,9.917-6l1.949,3.336C397.32,164.593,394.017,166.591,390.778,168.618Zm381.92-6.24c-3.3-1.923-6.667-3.816-10-5.625l1.842-3.4c3.37,1.828,6.77,3.739,10.106,5.681Zm-362.111-5.337-1.848-3.4c3.381-1.839,6.833-3.651,10.262-5.384l1.744,3.448C417.35,153.426,413.932,155.22,410.587,157.041Zm341.937-5.6c-3.41-1.715-6.886-3.4-10.331-5l1.631-3.5c3.481,1.62,6.992,3.32,10.436,5.053ZM431.06,146.694l-1.636-3.5c3.49-1.631,7.046-3.227,10.572-4.744L441.523,142C438.035,143.5,434.514,145.08,431.06,146.694Zm300.654-4.942c-3.508-1.5-7.081-2.968-10.621-4.356l1.411-3.6c3.577,1.4,7.187,2.884,10.731,4.4Zm-279.587-4.124-1.418-3.595c3.583-1.412,7.23-2.785,10.843-4.081l1.305,3.638C459.282,134.872,455.672,136.23,452.127,137.628Zm258.216-4.256c-3.593-1.283-7.251-2.523-10.872-3.688l1.184-3.679c3.658,1.177,7.355,2.431,10.987,3.727Zm-236.636-3.484-1.192-3.676c3.66-1.186,7.385-2.328,11.076-3.4l1.074,3.712C481.014,127.584,477.327,128.715,473.707,129.888Zm214.782-3.552c-3.664-1.054-7.394-2.064-11.084-3l.951-3.745c3.73.948,7.5,1.968,11.2,3.033ZM495.721,123.51l-.959-3.743c3.726-.955,7.515-1.862,11.263-2.7l.84,3.771C503.158,121.668,499.408,122.566,495.721,123.51Zm170.509-2.828c-3.72-.821-7.506-1.595-11.253-2.3l.715-3.8c3.786.713,7.612,1.495,11.372,2.325Zm-148.144-2.159-.723-3.8c3.771-.717,7.608-1.385,11.4-1.985l.6,3.817C525.615,117.152,521.818,117.813,518.086,118.523Zm125.572-2.087c-3.771-.586-7.6-1.122-11.379-1.589l.475-3.835c3.82.472,7.688,1.013,11.5,1.606Zm-102.947-1.487-.483-3.834c3.815-.48,7.684-.907,11.5-1.267l.363,3.846C548.315,114.051,544.486,114.474,540.711,114.949Zm80.141-1.335c-3.789-.349-7.644-.644-11.458-.875l.235-3.858c3.853.234,7.749.532,11.579.885Zm-57.343-.82-.245-3.856c3.838-.243,7.734-.428,11.58-.551l.124,3.862C571.162,112.371,567.306,112.555,563.509,112.794Zm34.4-.574c-3.644-.108-7.347-.162-11-.162h-.468v-3.865h.468c3.7,0,7.438.055,11.12.165Z" fill="#c1d8ed"></path>
    <path d="M858.026,229.87q-1.992-2.088-4.012-4.144l2.756-2.708q2.042,2.076,4.051,4.184Z" fill="#c1d8ed"></path>
  </g>
  <path d="M307.617,708.709l-20.854-2.48c.939-7.893,2-17.373,2.073-18.928,0,.1,0,.182,0,.245h21C309.831,688.176,309.831,690.091,307.617,708.709Z" fill="#E98862"></path>
  <path d="M223.941,711.22l-21-.068s.07-21.686.07-23.606h21C224.011,689.472,223.941,711.22,223.941,711.22Z" fill="#E98862"></path>
  <path d="M278.369,702.078l36.995-.63c-1.538-38.963-1.8-83.528-2.213-123.855a234.035,234.035,0,0,0-2.26-29.872c-5.952-42.723-9.835-85.2-17.848-127.679l-.267.079-.782-5.33L215.917,410.1l-3.96,49.7s-9.909,171.947-14.428,241.085L234.4,704c6.643-67.786,16.924-166.556,23.246-237.767,7.261,34.67,12.2,70.568,18.514,104.941C277.421,614.2,278.487,659.18,278.369,702.078Z" fill="#262626"></path>
  <path d="M249.469,719.342a4.109,4.109,0,0,0,4.077-4.427h0a4.109,4.109,0,0,0-2.659-3.529L226.444,703.2a3.465,3.465,0,0,0-2.872.319,19.1,19.1,0,0,1-11.468,3.4,17.026,17.026,0,0,1-8.82-3.222,1.546,1.546,0,0,0-2.527,1.2v11.952a2.678,2.678,0,0,0,2.688,2.678Z" fill="#c1d8ed"></path>
  <path d="M333.2,719.342a4.108,4.108,0,0,0,4.076-4.427h0a4.106,4.106,0,0,0-2.658-3.529L310.178,703.2a3.464,3.464,0,0,0-2.872.319,19.1,19.1,0,0,1-11.468,3.4,17.023,17.023,0,0,1-8.82-3.222,1.547,1.547,0,0,0-2.528,1.2v11.952a2.678,2.678,0,0,0,2.689,2.678Z" fill="#c1d8ed"></path>
  <g>
    <path d="M344.172,317.55s1.6-11.9,10.046-10.247c5.329,1.045,31.02,2.964,31.117,5.339.241,5.874-23.3,4.438-26.071,9.545Z" fill="#E98862"></path>
    <path d="M351.154,307.318s12.332-2.424,15.163-1.377c2.506.928-3.385,4.475-3.385,4.475Z" fill="#E98862"></path>
  </g>
  <path d="M322.827,337.252l-12.121-1.934a3.428,3.428,0,0,1-2.762-4.305l7.627-27.372a3.428,3.428,0,0,1,3.842-2.465l12.121,1.934a3.428,3.428,0,0,1,2.762,4.305l-7.627,27.372A3.427,3.427,0,0,1,322.827,337.252Z" fill="#c1d8ed"></path>
  <path d="M303.306,330.078l7.149,9.7s19.216-3.852,21.018-18.655c.208-1.7.028-6.42-2.083-5.787-5.5,1.648-12.344,10.087-17.144,11.21,1.1-1.962,2.432-4.731,1.57-5.237C311.549,319.977,305.455,328.014,303.306,330.078Z" fill="#E98862"></path>
  <path d="M344.133,310.549l-29.059,43.69-3.372-6.326,6.412-5.633L303.723,325.9l-2.555,2.245-8.891-16.685-.224.12c-3.1-5.4-8.7-8.881-18.33-9.3-.63-.031-1.64-.05-2.94-.07-.26,5.5-34.32,5.48-35.04-.131-9.62.01-17.51,2.961-22.08,7.53-15.75,15.75,3.58,42.591,3.58,63.591s-9.5,30.419-8.8,41.2c1.1,16.94,83.43,12.94,87.62,3.311,4.32-9.92-4.45-16.04-4.06-48.5.016-1.351.066-2.726.142-4.119l2.729-2.4,9.545,17.911a10.9,10.9,0,0,0,9.09,5.762c.178.008.355.012.532.012a10.9,10.9,0,0,0,9.077-4.864l39.171-58.894Z" fill="#FFFC12"></path>
  <path d="M270.783,302.213c-.26,5.5-3.25,13.59-12.48,14.2-12.3.81-21.84-8.721-22.56-14.331h.03C247.883,302.083,263.723,302.1,270.783,302.213Z" fill="#E98862"></path>
  <path d="M843.251,333.062s-7.488-11.9-7.181-15.115,9.665-6.479,9.665-6.479-1.354-2.849-2.561-5.975c-1.393-3.608-2.589-7.585-1.283-7.981,1.259-.383,3.17,2.892,4.92,6.7,2.249,4.888,4.234,10.648,4.234,10.648s.207-5.689,2.311-5.327c.865.148,1.23,1.177,1.233,5.255,0,4.647.727,11.893.727,11.893Z" fill="#E98862"></path>
  <path d="M867.02,386.383a10.9,10.9,0,0,1-10.1-6.8l-19.6-48.266,20.2-8.2,5.934,14.613,4.658-23.279,21.381,4.279L877.716,377.62a10.9,10.9,0,0,1-9.666,8.714C867.705,386.367,867.361,386.383,867.02,386.383Z" fill="#FFFC12"></path>
  <path d="M831.639,347.252l12.121-1.934a3.428,3.428,0,0,0,2.762-4.305L838.9,313.641a3.428,3.428,0,0,0-3.841-2.465l-12.122,1.934a3.428,3.428,0,0,0-2.762,4.305l7.627,27.372A3.427,3.427,0,0,0,831.639,347.252Z" fill="#c1d8ed"></path>
  <path d="M851.16,340.078l-7.149,9.7s-19.216-3.852-21.018-18.655c-.208-1.7-.028-6.42,2.083-5.787,5.5,1.648,12.344,10.087,17.144,11.21-1.1-1.962-2.431-4.731-1.57-5.237C842.917,329.977,849.011,338.014,851.16,340.078Z" fill="#E98862"></path>
  <path d="M947.8,309.613c-4.57-4.569-12.46-7.52-22.08-7.53-.72,5.611-34.78,5.631-35.04.131-1.3.02-2.31.039-2.94.07-23.117,1-23.05,19.628-20.775,40.219l-19.022-8.389-8.8,19.95,30.274,13.352q.03.9.042,1.8c.39,32.46-8.38,38.58-4.059,48.5,4.189,9.629,86.519,13.629,87.619-3.311.7-10.78-8.8-20.189-8.8-41.2S963.553,325.363,947.8,309.613Z" fill="#FFFC12"></path>
  <path d="M890.683,302.213c.26,5.5,3.25,13.59,12.48,14.2,12.3.81,21.84-8.721,22.56-14.331h-.03C913.583,302.083,897.743,302.1,890.683,302.213Z" fill="#E98862"></path>
  <circle cx="586.905" cy="122.872" r="122.872" fill="#dee8f5"></circle>
  <circle cx="586.905" cy="122.872" r="99.456" fill="#c1d8ed"></circle>
  <g>
    <path d="M550.951,64.206h39.82c24.149,0,42.9,6.635,42.9,28.854,0,10.436-5.837,21.545-15.328,25.115v.715c11.884,3.086,21.061,11.843,21.061,27.382,0,23.667-20.015,34.272-45.319,34.272H550.951Zm38.6,46.6c12.762,0,18.408-5.4,18.408-13.855,0-8.963-5.961-12.447-18.219-12.447H577.252v26.3Zm2.394,49.448c14.337,0,21.746-5.1,21.746-15.68,0-10.2-7.283-14.357-21.746-14.357h-14.7V160.25Z" fill="#fff"></path>
    <rect x="534.402" y="64.206" width="25.826" height="15.652" fill="#fff"></rect>
    <rect x="534.402" y="164.892" width="25.826" height="15.652" fill="#fff"></rect>
    <rect x="550.757" y="57.745" width="25.826" height="12.926" transform="translate(627.877 -499.462) rotate(90)" fill="#fff"></rect>
    <rect x="574.027" y="57.745" width="25.826" height="12.926" transform="translate(651.147 -522.732) rotate(90)" fill="#fff"></rect>
    <rect x="550.757" y="174.082" width="25.826" height="12.926" transform="translate(744.215 -383.125) rotate(90)" fill="#fff"></rect>
    <rect x="574.027" y="174.082" width="25.826" height="12.926" transform="translate(767.485 -406.395) rotate(90)" fill="#fff"></rect>
  </g>
  <g>
    <g>
      <path d="M85.535,663.221c-8.14-2.337-14.267-9.62-16.7-17.731s-1.577-16.912.8-25.039c1.941-6.633,4.881-13.045,5.606-19.917,2.413-22.885-19.784-46.266-9.338-66.77,3.378-6.631,9.914-11.813,11.081-19.162.964-6.078-2.03-11.984-3.519-17.956-2.048-8.217-1.01-17.542,4.322-24.123s15.406-9.455,22.753-5.241c9.608,5.511,10.442,19.119,7.972,29.918s-7.046,21.907-4.029,32.566c2.876,10.159,12.235,17.808,13.913,28.232,1.395,8.666-2.835,17.115-4.694,25.693-2.921,13.482.053,27.458.18,41.252S110.116,654.207,85.535,663.221Z" fill="#8ddbe0"></path>
      <path d="M72.974,664.53a28.635,28.635,0,0,1-19.366-21.478c-1.593-8.208.363-17.428-4.13-24.48-6.087-9.555-12.33-10.635-19.908-19.057-11.653-12.951-12.062-18.686-11.294-42.671C18.6,546.7,4.6,535.254,9.528,525.51c4.346-8.587,17.555-8.63,25.046-2.589S45.356,538.648,48.62,547.7,56,566.332,64.273,571.246c4.962,2.947,11.458,4.309,14.2,9.388,2.2,4.081,1.093,9.062.208,13.614-2.225,11.442-1.668,25.4,7.935,32.009,4.332,2.981,10.006,4.008,13.567,7.878,3.522,3.826,4.089,9.494,3.851,14.689a65.389,65.389,0,0,1-8.044,28.49" fill="#dee8f5"></path>
      <path d="M84.554,672.5c-8.645-9.878-9.868-25.526-2.861-36.627,5.878-9.314,16.834-15.729,19.134-26.5,2.049-9.594-3.633-19.507-1.932-29.169,1.85-10.506,11.555-17.4,19.265-24.772a26.887,26.887,0,0,0,5.119-6.181c3.391-6.1,2.445-13.589,3.6-20.475,2.205-13.187,13.069-24.884,26.26-27.064,11.569-1.912,19.857,4.734,19.857,16.974,0,14.5-10.862,20.713-16.4,27.278a50.989,50.989,0,0,0-11.882,33.973c.391,13.843,6.285,28.58-.012,40.913-4.621,9.051-14.491,13.877-22.246,20.444a56.551,56.551,0,0,0-19.695,40.32" fill="#c1d8ed"></path>
    </g>
    <rect x="52.102" y="649.765" width="69.764" height="69.764" fill="#FFFFFF"></rect>
    <g opacity="0.42">
      <rect x="52.102" y="663.368" width="69.764" height="13.617" fill="#fff"></rect>
    </g>
  </g>
</svg>