<svg width="274" height="794" viewBox="0 0 274 794" fill="none" xmlns="http://www.w3.org/2000/svg">
<path d="M104.9 46.8861C104.9 46.8861 94.1688 37.5981 92.6838 17.7731C91.5348 2.42308 104.9 13.2131 104.9 13.2131C104.9 13.2131 104.18 2.15216 112.091 3.77516C120.002 5.39816 123.707 17.2151 123.707 17.2151" fill="#0C0C0C"></path>
<path d="M153.291 7.82507C153.291 7.82507 192.639 14.7251 174.713 67.4741H164.04" fill="#0C0C0C"></path>
<path d="M179.289 748.065C179.289 748.065 174.608 772.332 151.889 773.684C129.17 775.036 134.096 793.137 134.096 793.137H220.921V749.757L179.289 748.065Z" fill="#FFFC12"></path>
<path d="M226.807 305.4C226.807 305.4 226.534 298.106 226.592 314.653C226.807 376.376 224.75 763.553 224.75 763.553L167.697 763.074L133.136 302.895L226.807 305.4Z" fill="#262626"></path>
<path d="M81.8649 748.065C81.8649 748.065 77.1839 772.332 54.4649 773.684C31.7459 775.036 36.6709 793.137 36.6709 793.137H123.5V749.757L81.8649 748.065Z" fill="#FFFC12"></path>
<path d="M70.8301 310.2C70.8301 310.2 63.703 521.153 64.443 531.464L71.1431 761.959L127.254 762.996L136.302 523.127C136.302 523.127 142.233 456.96 158.219 395.519C166.4 363.985 171.322 331.695 172.91 299.156V299.156L70.8301 310.2Z" fill="#262626"></path>
<path d="M144.853 459.761L140.174 388.209C140.174 388.209 135.368 417.955 135.368 443.594C135.368 456.127 137.95 505.745 137.95 505.745L144.853 459.761Z" fill="#0A0A0A"></path>
<path d="M108.977 122.309C109.151 122.286 111.089 154.442 148.446 151.639C174.307 149.702 183.528 122.263 184.12 122.263C181.332 121.671 177.886 120.771 176.52 120.463C173.535 119.77 170.832 118.185 168.771 115.919C166.709 113.652 165.386 110.812 164.978 107.775C164.222 103.217 165.505 79.8991 165.11 75.2871L125.41 84.1481C125.964 93.8871 129.847 116.467 116.24 120.463C113.976 121.124 111.537 121.732 108.977 122.309Z" fill="#E98862"></path>
<path opacity="1" d="M124.853 111.235C125.475 109.231 125.876 107.165 126.047 105.074C126.484 100.302 126.397 95.4971 125.788 90.7441C133.856 89.6548 141.457 86.3246 147.728 81.1321C148.465 83.8541 152.519 95.7492 151.396 98.3322C149.275 103.227 139.305 111.235 124.853 111.235Z" fill="#0C0C0C"></path>
<path d="M131.9 103.466C147.62 103.112 166.984 94.4921 168.675 73.2991L170.201 54.1762C171.892 32.9832 162.132 14.9152 142.178 13.3222C122.223 11.7302 105.938 27.7221 104.246 48.9131L103.571 57.3792C103.39 60.29 103.407 63.2098 103.623 66.1182C104.136 73.8092 104.947 85.5052 109.596 93.6912C113.984 101.42 121.856 103.692 131.9 103.466Z" fill="#E98862"></path>
<path opacity="1" d="M125.948 83.5921C122.713 83.5222 119.541 82.6929 116.686 81.1711C116.566 81.1105 116.476 81.0049 116.435 80.8777C116.393 80.7504 116.404 80.612 116.464 80.4927C116.525 80.3733 116.63 80.2829 116.758 80.2413C116.885 80.1998 117.024 80.2105 117.143 80.2711C123.305 83.4001 129.09 83.39 133.874 80.242C133.971 80.1752 134.071 80.1135 134.174 80.0571C134.294 80.0045 134.429 80.0003 134.552 80.0454C134.674 80.0904 134.775 80.1812 134.832 80.2987C134.889 80.4162 134.899 80.5514 134.859 80.6758C134.819 80.8002 134.732 80.9042 134.617 80.966C134.579 80.986 134.517 81.0282 134.43 81.0862C131.915 82.7473 128.962 83.6199 125.948 83.5921V83.5921Z" fill="#0C0C0C"></path>
<path opacity="1" d="M125.779 88.3811C125.194 88.3776 124.61 88.3245 124.034 88.2222C123.901 88.1992 123.783 88.1245 123.706 88.0145C123.628 87.9045 123.598 87.7682 123.62 87.6356C123.643 87.503 123.718 87.3849 123.828 87.3074C123.938 87.2298 124.074 87.1992 124.207 87.2222C127.673 87.8222 129.446 86.3401 129.52 86.2761C129.621 86.1878 129.752 86.1432 129.886 86.152C130.02 86.1608 130.145 86.2223 130.233 86.3231C130.321 86.4239 130.366 86.5556 130.357 86.6893C130.348 86.823 130.287 86.9478 130.186 87.0361C128.917 87.9803 127.359 88.4555 125.779 88.3811V88.3811Z" fill="#0C0C0C"></path>
<path d="M110.165 61.9121C111.526 61.9121 112.63 60.8085 112.63 59.4471C112.63 58.0858 111.526 56.9822 110.165 56.9822C108.804 56.9822 107.7 58.0858 107.7 59.4471C107.7 60.8085 108.804 61.9121 110.165 61.9121Z" fill="#0C0C0C"></path>
<path d="M135.088 62.0673C136.449 62.0673 137.553 60.9637 137.553 59.6023C137.553 58.2409 136.449 57.1372 135.088 57.1372C133.727 57.1372 132.623 58.2409 132.623 59.6023C132.623 60.9637 133.727 62.0673 135.088 62.0673Z" fill="#0C0C0C"></path>
<path d="M166.92 79.6572C172.984 80.1402 178.42 74.0452 178.901 67.9812C179.382 61.9172 174.736 58.1813 168.672 57.6973L165.223 61.5112L161.706 79.2412L166.92 79.6572Z" fill="#E98862"></path>
<path d="M62.5639 193.1C63.7409 206.924 69.4638 293.166 70.5948 310.193H226.509C227.39 294.836 231.345 227.685 234.685 197.655C237.873 168.999 244.128 154.655 239.543 146.18C232.051 132.333 211.577 124.332 197.617 122.442C189.093 121.288 176.271 120.461 176.271 120.461C176.271 120.461 175.186 142.422 149.3 143.644C114.062 145.307 116.415 120.461 116.241 120.461C110.532 120.461 77.9209 124.074 69.9409 128.804C48.1999 141.68 60.0659 163.808 62.5639 193.1Z" fill="#FFFC12"></path>
<path d="M161.535 69.5001C161.535 69.5001 161.497 39.349 152.52 36.886C146.541 35.245 131.267 42.8581 117.826 39.3491C111.946 37.8141 106.192 38.9101 105.426 41.6851C105.126 42.7851 102.486 26.526 112.626 15.001C120.7 5.82604 145.186 4.72305 156.026 8.63605C186.053 19.47 169.826 59.1041 169.826 59.1041L167.767 69.36L161.535 69.5001Z" fill="#0C0C0C"></path>
<g opacity="1">
<path opacity="1" d="M122.754 76.2631H122.715C120.761 76.1121 117.499 75.6411 117.61 74.1791C117.71 72.9671 122.03 60.1452 122.523 58.6882C122.571 58.5698 122.662 58.4742 122.778 58.4208C122.894 58.3675 123.026 58.3604 123.146 58.4012C123.267 58.442 123.368 58.5274 123.428 58.6401C123.488 58.7527 123.503 58.8841 123.469 59.0071C121.549 64.6861 118.669 73.4322 118.606 74.2552C118.772 74.6162 120.768 75.1112 122.791 75.2672C122.924 75.2721 123.049 75.3295 123.139 75.4267C123.229 75.5239 123.277 75.6531 123.272 75.7857C123.268 75.9183 123.21 76.0436 123.113 76.1339C123.016 76.2241 122.887 76.2721 122.754 76.2672V76.2631Z" fill="#0C0C0C"></path>
</g>
<path d="M117.093 48.767C116.324 48.4444 115.514 48.2268 114.687 48.12C113.83 48.0011 112.96 48.0011 112.103 48.12C111.241 48.2281 110.401 48.4662 109.61 48.8261C108.803 49.1889 108.045 49.6518 107.353 50.204L107.298 50.245C107.12 50.3824 106.895 50.4446 106.671 50.4184C106.448 50.3922 106.243 50.2797 106.101 50.1049C105.959 49.9301 105.892 49.7069 105.912 49.4827C105.933 49.2586 106.04 49.0513 106.211 48.9051C106.977 48.1928 107.83 47.5803 108.75 47.0821C109.683 46.5718 110.688 46.2043 111.73 45.992C112.773 45.7682 113.842 45.6889 114.907 45.756C116.003 45.8131 117.086 46.0267 118.122 46.3901C118.43 46.5172 118.677 46.7573 118.812 47.0611C118.948 47.3649 118.962 47.7093 118.852 48.0231C118.741 48.337 118.515 48.5965 118.218 48.7483C117.922 48.9001 117.579 48.9326 117.26 48.839C117.229 48.828 117.198 48.816 117.168 48.803L117.093 48.767Z" fill="#0C0C0C"></path>
<path d="M131.565 46.5941C133.621 45.8861 135.83 45.7479 137.958 46.194C139 46.4062 140.004 46.7737 140.937 47.2841C141.857 47.7831 142.71 48.3959 143.476 49.1081C143.645 49.2548 143.75 49.4612 143.77 49.684C143.79 49.9069 143.722 50.1287 143.581 50.3026C143.44 50.4765 143.238 50.589 143.016 50.6163C142.794 50.6436 142.57 50.5837 142.391 50.449L142.334 50.4061C141.642 49.8539 140.884 49.3908 140.077 49.028C139.286 48.6681 138.446 48.4302 137.584 48.3221C135.893 48.0957 134.171 48.3191 132.594 48.97L132.522 49.002C132.365 49.0821 132.192 49.1293 132.016 49.1407C131.84 49.1521 131.663 49.1274 131.497 49.0682C131.331 49.009 131.178 48.9166 131.048 48.7965C130.919 48.6764 130.815 48.5311 130.744 48.3696C130.672 48.2081 130.635 48.0337 130.633 47.8571C130.631 47.6805 130.665 47.5054 130.733 47.3425C130.801 47.1795 130.902 47.0321 131.028 46.9093C131.155 46.7864 131.306 46.6908 131.471 46.6281C131.5 46.6181 131.535 46.6051 131.565 46.5941Z" fill="#0C0C0C"></path>
<path d="M133.674 16.5503C135.499 10.0303 133.387 3.73995 128.958 2.50037C124.529 1.26079 119.459 5.54139 117.634 12.0613C115.81 18.5813 117.921 24.8716 122.35 26.1112C126.78 27.3507 131.849 23.0702 133.674 16.5503Z" fill="#0C0C0C"></path>
<path d="M28.3399 298.428C23.7267 298.422 19.1953 297.21 15.1956 294.911C11.1959 292.612 7.86697 289.308 5.53952 285.325C3.21208 281.341 1.967 276.819 1.92795 272.206C1.8889 267.593 3.05725 263.05 5.31693 259.028L68.3379 146.934C70.0396 143.907 72.3207 141.246 75.0511 139.101C77.7814 136.956 80.9075 135.369 84.2509 134.433C87.5943 133.496 91.0894 133.227 94.5368 133.64C97.9842 134.054 101.316 135.143 104.343 136.845C107.37 138.547 110.031 140.828 112.176 143.558C114.321 146.288 115.907 149.415 116.844 152.758C117.781 156.101 118.05 159.596 117.636 163.044C117.222 166.491 116.134 169.823 114.432 172.85L51.4109 284.943C49.1101 289.038 45.7599 292.445 41.7049 294.815C37.65 297.186 33.0368 298.433 28.3399 298.428V298.428Z" fill="#FFFC12"></path>
<path d="M143.461 206.471L127.154 187.384C126.804 186.974 126.373 186.639 125.889 186.4C125.405 186.161 124.878 186.024 124.339 185.996C123.8 185.968 123.261 186.05 122.755 186.237C122.249 186.424 121.786 186.712 121.395 187.084C120.664 187.831 120.243 188.827 120.218 189.871C120.193 190.916 120.565 191.932 121.26 192.712L124.745 196.791L142.177 210.033L143.461 206.471Z" fill="#E98862"></path>
<path d="M117.881 211.5L66.392 214.708C64.3252 214.837 62.2838 214.196 60.6624 212.907C59.041 211.619 57.9545 209.776 57.613 207.733L44.9 131.753C44.7065 130.596 44.7579 129.412 45.0512 128.277C45.3445 127.141 45.873 126.08 46.6024 125.162C47.3319 124.244 48.2461 123.489 49.2858 122.946C50.3255 122.404 51.4676 122.086 52.638 122.013L104.127 118.805C106.194 118.676 108.235 119.318 109.857 120.606C111.478 121.894 112.564 123.738 112.906 125.78L125.624 201.763C125.817 202.92 125.765 204.104 125.471 205.24C125.178 206.375 124.649 207.436 123.919 208.354C123.189 209.272 122.274 210.026 121.234 210.568C120.194 211.11 119.052 211.428 117.881 211.5V211.5Z" fill="#292A2E"></path>
<path d="M124.744 196.794L107.844 188.97C105.979 188.07 103.114 188.153 102.244 190.311C101.854 191.119 101.749 192.035 101.947 192.911C102.145 193.786 102.633 194.568 103.333 195.13C103.319 195.146 103.307 195.164 103.297 195.183C103.292 195.198 103.289 195.213 103.286 195.228L100.411 193.836C99.8814 193.58 99.3015 193.444 98.7131 193.439C98.1247 193.435 97.5427 193.56 97.0088 193.808C96.475 194.055 96.0027 194.418 95.6261 194.87C95.2495 195.322 94.978 195.852 94.8311 196.422C94.6151 197.335 94.7212 198.294 95.1314 199.138C95.5416 199.981 96.2307 200.657 97.0821 201.051L98.3061 201.643C98.3046 201.687 98.3114 201.732 98.3261 201.774C97.4161 201.567 96.4622 201.687 95.6321 202.114C94.802 202.54 94.1488 203.246 93.7871 204.106C93.4164 205.083 93.4307 206.164 93.8268 207.131C94.223 208.098 94.9715 208.879 95.9211 209.315L98.9281 210.771C98.8707 210.781 98.8164 210.804 98.7696 210.839C98.7229 210.873 98.685 210.919 98.6591 210.971C98.6293 211.038 98.6213 211.113 98.6361 211.185C97.79 211.223 96.9784 211.531 96.3201 212.064C95.6618 212.597 95.1916 213.326 94.9781 214.146C94.7624 215.059 94.8686 216.018 95.279 216.862C95.6894 217.705 96.3786 218.381 97.2301 218.775L122.867 231.187C126.454 232.923 130.477 233.549 134.422 232.984C138.366 232.419 142.052 230.689 145.007 228.015L154.52 219.406L124.744 196.794Z" fill="#E98862"></path>
<g opacity="0.2">
<path opacity="0.2" d="M120.017 202.96C119.975 203.046 119.901 203.112 119.81 203.144C119.72 203.176 119.621 203.171 119.534 203.131L103.468 195.67C103.422 195.651 103.381 195.623 103.346 195.588C103.311 195.552 103.284 195.51 103.266 195.464C103.248 195.418 103.239 195.369 103.241 195.319C103.242 195.27 103.254 195.221 103.275 195.176C103.296 195.131 103.326 195.091 103.362 195.058C103.399 195.025 103.442 194.999 103.489 194.983C103.536 194.967 103.586 194.961 103.635 194.965C103.685 194.968 103.733 194.982 103.777 195.005L119.843 202.466C119.931 202.507 119.999 202.581 120.033 202.673C120.066 202.764 120.062 202.865 120.021 202.953L120.017 202.96Z" fill="#0C0C0C"></path>
</g>
<g opacity="0.2">
<path opacity="0.2" d="M116.922 210.137C116.88 210.223 116.806 210.289 116.715 210.321C116.625 210.352 116.526 210.348 116.439 210.307L98.5091 201.981C98.421 201.94 98.3528 201.866 98.3194 201.774C98.2861 201.683 98.2903 201.582 98.3311 201.494C98.3747 201.408 98.4492 201.342 98.5396 201.309C98.63 201.276 98.7295 201.279 98.8181 201.316L116.748 209.642C116.836 209.683 116.905 209.757 116.938 209.849C116.971 209.94 116.967 210.041 116.926 210.129L116.922 210.137Z" fill="#0C0C0C"></path>
</g>
<g opacity="0.2">
<path opacity="0.2" d="M113.615 217.929C113.573 218.015 113.499 218.081 113.408 218.112C113.318 218.144 113.219 218.139 113.132 218.099L98.8321 211.458C98.7863 211.439 98.7449 211.411 98.7101 211.376C98.6754 211.34 98.6482 211.298 98.6302 211.252C98.6121 211.206 98.6036 211.157 98.6052 211.107C98.6067 211.057 98.6183 211.009 98.6392 210.964C98.66 210.919 98.6898 210.879 98.7267 210.846C98.7635 210.812 98.8067 210.787 98.8536 210.771C98.9005 210.755 98.9502 210.749 98.9996 210.753C99.049 210.756 99.0972 210.77 99.1412 210.793L113.441 217.434C113.529 217.475 113.598 217.549 113.631 217.64C113.664 217.732 113.66 217.833 113.619 217.921L113.615 217.929Z" fill="#0C0C0C"></path>
</g>
<path d="M123.706 238.548L234.915 293.1C239.623 295.267 244.849 296.059 249.988 295.384C255.127 294.709 259.97 292.595 263.959 289.285C267.948 285.976 270.92 281.606 272.532 276.679C274.143 271.753 274.329 266.472 273.068 261.444L243.373 154.68C242.495 151.179 240.936 147.885 238.784 144.987C236.633 142.088 233.932 139.642 230.835 137.788C227.739 135.933 224.307 134.707 220.737 134.178C217.166 133.65 213.526 133.83 210.025 134.708C195.301 138.401 187.396 153.331 191.09 168.055L214.39 225.782L143.13 195.905L123.706 238.548Z" fill="#FFFC12"></path>
<path d="M227.6 290.1C227.565 290.094 227.532 290.084 227.5 290.069L123.545 238.869C123.459 238.827 123.393 238.754 123.36 238.664C123.328 238.574 123.332 238.475 123.372 238.388L142.793 195.743C142.832 195.656 142.904 195.587 142.993 195.552C143.082 195.518 143.181 195.519 143.269 195.557L212.79 224.101L199.031 182.661C199.012 182.613 199.003 182.562 199.005 182.511C199.007 182.46 199.019 182.41 199.042 182.363C199.064 182.317 199.096 182.277 199.135 182.244C199.175 182.211 199.221 182.186 199.27 182.172C199.319 182.158 199.371 182.155 199.422 182.162C199.472 182.169 199.521 182.187 199.565 182.214C199.608 182.241 199.645 182.277 199.674 182.32C199.703 182.362 199.722 182.41 199.731 182.461L213.698 224.635C213.717 224.702 213.717 224.773 213.698 224.84C213.678 224.907 213.64 224.967 213.587 225.013C213.535 225.059 213.47 225.089 213.401 225.1C213.332 225.11 213.262 225.101 213.198 225.073L143.304 196.373L124.178 238.368L227.811 289.406C227.89 289.445 227.952 289.511 227.986 289.592C228.021 289.673 228.025 289.764 227.998 289.848C227.971 289.931 227.914 290.003 227.839 290.048C227.764 290.094 227.675 290.111 227.588 290.097L227.6 290.1Z" fill="#0C0C0C"></path>
<path d="M225.818 230.706C225.788 230.701 225.759 230.692 225.731 230.679L213.201 225.079C213.112 225.039 213.043 224.966 213.009 224.875C212.974 224.785 212.977 224.684 213.016 224.595C213.035 224.551 213.063 224.511 213.098 224.477C213.133 224.444 213.175 224.418 213.22 224.401C213.265 224.383 213.313 224.375 213.361 224.377C213.41 224.379 213.457 224.39 213.501 224.41L226.03 230.01C226.116 230.044 226.185 230.109 226.225 230.192C226.265 230.275 226.272 230.369 226.246 230.457C226.219 230.546 226.16 230.62 226.081 230.667C226.002 230.714 225.908 230.729 225.818 230.71V230.706Z" fill="#0C0C0C"></path>
<path d="M84.1699 155.9C83.6363 155.231 82.9003 154.752 82.072 154.536C81.2438 154.32 80.3678 154.377 79.575 154.7C79.5692 154.651 79.5514 154.604 79.5234 154.563C79.4954 154.522 79.4578 154.489 79.414 154.466C79.3702 154.443 79.3215 154.431 79.272 154.431C79.2225 154.431 79.1738 154.443 79.13 154.466L81.292 151.853C81.9567 151.081 82.3112 150.09 82.2866 149.071C82.262 148.052 81.8602 147.079 81.159 146.34C80.4781 145.667 79.5768 145.262 78.6212 145.201C77.6657 145.14 76.7201 145.426 75.959 146.007C75.959 145.968 75.921 145.939 75.906 145.907L76.791 144.837C77.398 144.13 77.7438 143.236 77.7705 142.305C77.7973 141.373 77.5034 140.461 76.938 139.72C76.5697 139.257 76.1028 138.882 75.5713 138.623C75.0398 138.363 74.457 138.225 73.8655 138.219C73.274 138.214 72.6886 138.34 72.1521 138.589C71.6155 138.838 71.1412 139.204 70.7639 139.659L68.722 142.127C68.71 142.115 68.7129 142.095 68.6989 142.084C68.6849 142.073 68.6569 142.075 68.6389 142.063C69.0454 141.26 69.1672 140.343 68.9843 139.462C68.8013 138.581 68.3245 137.789 67.632 137.214C65.939 135.614 63.298 136.729 61.978 138.325L49.4959 153.136L49.856 152.467L51.335 147.291C51.6351 146.317 51.5624 145.265 51.1311 144.342C50.6998 143.418 49.9407 142.687 49.0009 142.291C48.4863 142.093 47.9359 142.004 47.3849 142.03C46.8339 142.056 46.2944 142.196 45.8007 142.442C45.307 142.688 44.8699 143.034 44.5174 143.458C44.1648 143.883 43.9045 144.376 43.753 144.906L36.853 169.044L35.1779 174.906C34.3743 177.717 34.6987 180.731 36.082 183.307C37.4653 185.883 39.7986 187.817 42.586 188.7L44.409 189.278C48.2074 190.482 52.279 190.524 56.1015 189.399C59.9239 188.273 63.3231 186.032 65.8629 182.961L84.0219 161.015C84.6286 160.308 84.9743 159.415 85.0012 158.484C85.0282 157.553 84.7347 156.641 84.1699 155.9Z" fill="#E98862"></path>
<g opacity="0.2">
<path opacity="0.2" d="M56.717 156.11C56.7911 156.17 56.886 156.2 56.9814 156.191C57.0767 156.182 57.1649 156.137 57.227 156.064L68.738 142.601C68.7964 142.526 68.8239 142.432 68.8146 142.338C68.8053 142.244 68.7599 142.157 68.688 142.096C68.6162 142.034 68.5233 142.003 68.4288 142.008C68.3343 142.013 68.2456 142.055 68.181 142.124L56.67 155.588C56.6386 155.625 56.6147 155.667 56.5997 155.713C56.5847 155.758 56.5789 155.807 56.5826 155.855C56.5863 155.903 56.5995 155.95 56.6214 155.993C56.6432 156.035 56.6734 156.074 56.71 156.105L56.717 156.11Z" fill="#0C0C0C"></path>
</g>
<g opacity="0.2">
<path opacity="0.2" d="M62.514 161.351C62.5885 161.411 62.6835 161.44 62.7788 161.432C62.8741 161.423 62.9624 161.378 63.025 161.305L75.871 146.279C75.9338 146.205 75.9649 146.11 75.9574 146.013C75.95 145.916 75.9045 145.826 75.831 145.763C75.756 145.703 75.6607 145.673 75.5646 145.681C75.4685 145.688 75.3788 145.732 75.314 145.803L62.467 160.828C62.4039 160.902 62.3729 160.998 62.3805 161.095C62.3882 161.192 62.4341 161.282 62.508 161.345L62.514 161.351Z" fill="#0C0C0C"></path>
</g>
<g opacity="0.2">
<path opacity="0.2" d="M68.761 167.063C68.8351 167.124 68.93 167.153 69.0254 167.144C69.1207 167.136 69.2089 167.09 69.271 167.017L79.519 155.032C79.5774 154.958 79.6048 154.864 79.5955 154.769C79.5862 154.675 79.5409 154.588 79.469 154.527C79.3972 154.465 79.3043 154.434 79.2098 154.439C79.1154 154.444 79.0265 154.486 78.962 154.555L68.714 166.541C68.6828 166.578 68.6591 166.62 68.6443 166.666C68.6295 166.711 68.6238 166.76 68.6276 166.808C68.6314 166.855 68.6446 166.902 68.6665 166.945C68.6884 166.988 68.7184 167.026 68.755 167.057L68.761 167.063Z" fill="#0C0C0C"></path>
</g>
<path d="M75.9589 182.2L55.4999 274.218C54.9241 277.781 53.652 281.196 51.7564 284.268C49.8608 287.34 47.3787 290.008 44.4519 292.12C41.5251 294.233 38.2109 295.748 34.6985 296.58C31.1861 297.411 27.5442 297.543 23.9809 296.967C20.4177 296.391 17.0026 295.119 13.931 293.224C10.8593 291.328 8.19104 288.846 6.0786 285.919C3.96616 282.992 2.45091 279.678 1.61931 276.166C0.78771 272.653 0.656071 269.011 1.23192 265.448L29.3249 167.148" fill="#FFFC12"></path>
<path d="M57.0899 257.646C57.0443 257.646 56.9988 257.64 56.9549 257.628C56.8891 257.61 56.8275 257.58 56.7736 257.538C56.7196 257.497 56.6744 257.445 56.6405 257.386C56.6066 257.327 56.5847 257.261 56.576 257.194C56.5673 257.126 56.5721 257.058 56.5899 256.992L68.1259 214.609C68.1438 214.543 68.1745 214.482 68.2162 214.428C68.2579 214.374 68.3097 214.329 68.3688 214.296C68.428 214.262 68.4932 214.24 68.5607 214.231C68.6282 214.223 68.6967 214.228 68.7624 214.246C68.8281 214.264 68.8896 214.294 68.9434 214.336C68.9972 214.378 69.0422 214.43 69.0759 214.489C69.1097 214.548 69.1315 214.613 69.1401 214.68C69.1487 214.748 69.1438 214.816 69.1259 214.882L57.5899 257.264C57.5602 257.374 57.4951 257.471 57.4047 257.54C57.3143 257.609 57.2037 257.646 57.0899 257.646Z" fill="#0C0C0C"></path>
</svg>