<svg width="652" height="472" viewBox="0 0 652 472" fill="none" xmlns="http://www.w3.org/2000/svg">
<path d="M526.347 55.335C526.347 55.335 532.632 87.004 541.327 97.659C566.359 128.334 577.237 165.092 559.068 187.398C540.899 209.704 408.768 227.171 392.892 183.367C379.523 146.489 397.08 140.052 397.406 108.153C397.554 93.719 399.165 63.284 399.165 63.284" fill="#0A0A0A"></path>
<path d="M420.1 165.854C420.33 165.824 422.883 208.185 472.094 204.492C506.162 201.939 518.309 165.792 519.089 165.792C515.416 165.011 509.231 163.876 507.6 163.005C502.235 160.123 495.6 157.123 493.869 146.705C492.869 140.705 494.563 109.983 494.042 103.905L441.748 115.577C442.479 128.408 447.593 158.152 429.668 163.416C426.686 164.293 423.473 165.094 420.1 165.854Z" fill="#E98862"></path>
<path opacity="0.5" d="M441.015 151.266C441.834 148.626 442.361 145.905 442.588 143.15C443.163 136.864 443.049 130.534 442.246 124.273C452.874 122.838 462.887 118.451 471.146 111.61C472.118 115.196 477.458 130.866 475.979 134.274C473.186 140.717 460.053 151.266 441.015 151.266Z" fill="#0C0C0C"></path>
<path d="M450.1 141.179C470.8 140.497 496.192 128.879 498.129 100.938L499.878 75.727C501.815 47.788 488.712 24.12 462.405 22.296C436.098 20.471 414.864 41.757 412.926 69.696L412.152 80.857C411.411 91.579 413.164 142.4 450.1 141.179Z" fill="#E98862"></path>
<path d="M419.472 83.0149C421.266 83.0149 422.72 81.5607 422.72 79.7669C422.72 77.9731 421.266 76.5189 419.472 76.5189C417.678 76.5189 416.224 77.9731 416.224 79.7669C416.224 81.5607 417.678 83.0149 419.472 83.0149Z" fill="#0C0C0C"></path>
<path d="M452.809 83.0149C454.603 83.0149 456.057 81.5607 456.057 79.7669C456.057 77.9731 454.603 76.5189 452.809 76.5189C451.015 76.5189 449.561 77.9731 449.561 79.7669C449.561 81.5607 451.015 83.0149 452.809 83.0149Z" fill="#0C0C0C"></path>
<path opacity="0.5" d="M437.478 104.251H437.427C436.361 104.169 435.3 104.028 434.249 103.83C432.678 103.522 430.601 102.952 430.697 101.555C430.807 99.9629 436.359 83.088 436.997 81.169C437.057 81.0076 437.178 80.8759 437.333 80.8014C437.488 80.7269 437.666 80.7154 437.83 80.7694C437.993 80.8233 438.129 80.9385 438.21 81.0907C438.29 81.243 438.309 81.4205 438.261 81.5859C435.892 88.7729 432.104 100.575 432.03 101.647C432.258 102.112 434.879 102.739 437.524 102.923C437.697 102.932 437.86 103.009 437.978 103.137C438.095 103.265 438.158 103.434 438.153 103.607C438.147 103.781 438.074 103.946 437.949 104.066C437.824 104.187 437.657 104.253 437.483 104.252L437.478 104.251Z" fill="#0C0C0C"></path>
<path opacity="0.5" d="M442.685 115.6C438.424 115.551 434.233 114.502 430.451 112.538C430.293 112.46 430.172 112.322 430.116 112.155C430.059 111.988 430.071 111.805 430.149 111.646C430.228 111.488 430.366 111.368 430.533 111.311C430.7 111.255 430.883 111.267 431.041 111.345C439.2 115.384 446.821 115.291 453.08 111.078C453.206 110.989 453.337 110.907 453.472 110.831C453.63 110.751 453.813 110.738 453.981 110.793C454.149 110.848 454.287 110.968 454.367 111.126C454.446 111.284 454.46 111.467 454.405 111.635C454.349 111.802 454.23 111.941 454.072 112.021C454.022 112.049 453.941 112.106 453.827 112.183C450.536 114.406 446.656 115.595 442.685 115.6V115.6Z" fill="#0C0C0C"></path>
<path d="M521.481 81.885L497.915 80.385C479.615 75.385 470.748 45.768 470.748 45.768C470.748 45.768 451.977 68.96 399.165 63.283C399.165 63.283 400.989 -9.64703 479.422 2.21397C504.713 6.03897 525.214 28.642 526.928 61.891C528.13 85.193 521.481 81.885 521.481 81.885Z" fill="#0A0A0A"></path>
<path d="M495.907 109.337C503.902 109.891 510.976 101.788 511.53 93.793C512.084 85.798 505.909 80.94 497.915 80.386L493.424 85.457L489.034 108.857L495.907 109.337Z" fill="#E98862"></path>
<path d="M429.82 69.223C427.692 68.0975 425.303 67.5564 422.897 67.655C421.688 67.696 420.492 67.9191 419.349 68.317C418.196 68.7111 417.097 69.2487 416.078 69.917L416.045 69.937C415.931 70.0035 415.797 70.0235 415.669 69.9927C415.541 69.962 415.43 69.8829 415.359 69.7721C415.288 69.6612 415.263 69.5272 415.289 69.3982C415.314 69.2692 415.389 69.1552 415.497 69.08C416.571 68.321 417.735 67.7004 418.964 67.233C420.201 66.7571 421.501 66.4695 422.823 66.38C425.499 66.182 428.179 66.7052 430.584 67.895C430.765 67.9864 430.902 68.1459 430.965 68.3384C431.029 68.5309 431.013 68.7406 430.921 68.9215C430.83 69.1024 430.671 69.2396 430.478 69.3029C430.286 69.3662 430.076 69.3504 429.895 69.259L429.875 69.249L429.82 69.223Z" fill="#0C0C0C"></path>
<path d="M451.191 69.3929C453.734 68.5354 456.46 68.3748 459.086 68.9279C460.384 69.1938 461.634 69.6529 462.796 70.2899C463.951 70.9175 465.023 71.6879 465.985 72.5829C466.088 72.6702 466.152 72.7948 466.163 72.9293C466.175 73.0639 466.132 73.1974 466.045 73.3004C465.957 73.4035 465.833 73.4676 465.698 73.4788C465.564 73.4899 465.43 73.4472 465.327 73.3599L465.297 73.3359C464.377 72.5361 463.36 71.8551 462.27 71.3089C461.191 70.7617 460.035 70.3807 458.842 70.1789C456.471 69.76 454.032 69.9766 451.772 70.8069L451.716 70.8279C451.622 70.8664 451.521 70.8856 451.42 70.8846C451.318 70.8835 451.217 70.8622 451.124 70.8219C451.031 70.7815 450.946 70.7229 450.876 70.6496C450.806 70.5762 450.751 70.4896 450.714 70.3947C450.678 70.2998 450.661 70.1986 450.664 70.0969C450.667 69.9953 450.69 69.8954 450.733 69.8029C450.775 69.7104 450.835 69.6274 450.91 69.5585C450.985 69.4896 451.072 69.4364 451.168 69.4019L451.191 69.3929Z" fill="#0C0C0C"></path>
<path opacity="1" d="M442.527 121.909C441.757 121.913 440.987 121.851 440.227 121.723C440.141 121.709 440.058 121.678 439.984 121.632C439.91 121.586 439.845 121.526 439.794 121.455C439.743 121.384 439.707 121.303 439.687 121.218C439.667 121.133 439.664 121.045 439.678 120.959C439.692 120.873 439.723 120.79 439.769 120.716C439.815 120.642 439.875 120.577 439.946 120.526C440.017 120.475 440.098 120.439 440.183 120.419C440.268 120.399 440.356 120.396 440.442 120.41C445.015 121.16 447.33 119.176 447.427 119.091C447.559 118.974 447.731 118.915 447.906 118.925C448.082 118.935 448.246 119.014 448.363 119.145C448.48 119.276 448.541 119.448 448.532 119.624C448.523 119.799 448.444 119.964 448.314 120.082C446.654 121.342 444.609 121.987 442.527 121.909V121.909Z" fill="#0C0C0C"></path>
<path d="M470.973 42.533C470.973 42.533 466.773 72.579 497.907 79.767" stroke="#0C0C0C" stroke-width="0.5" stroke-miterlimit="10"></path>
<path opacity="0.1" d="M458.453 103.811C461.87 103.775 464.618 101.714 464.592 99.2079C464.565 96.7018 461.774 94.6996 458.357 94.7359C454.94 94.7721 452.192 96.8331 452.219 99.3393C452.245 101.845 455.037 103.848 458.453 103.811Z" fill="#0C0C0C"></path>
<path opacity="0.1" d="M421.62 98.5679C421.639 101.068 418.891 103.131 415.475 103.168C414.884 103.173 414.295 103.118 413.715 103.003C413.177 100.085 412.8 97.2589 412.545 94.6309C413.449 94.2758 414.412 94.0926 415.383 94.0909C418.8 94.0549 421.59 96.0559 421.62 98.5679Z" fill="#0C0C0C"></path>
<path d="M584.685 417.54L593.59 471.828H371.491L379.793 417.212L584.685 417.54Z" fill="#262626"></path>
<path d="M473.223 193.964C507.315 192.357 508.75 163.42 508.75 163.42C508.75 163.42 525.642 164.512 536.871 166.031C555.256 168.519 567.383 174.752 577.035 184.404C586.013 193.382 591.479 203.096 585.695 265.114C581.507 310.02 584.685 417.54 584.685 417.54L379.793 417.212C379.793 417.212 360.675 279.329 358.956 259.112C355.673 220.522 362.668 187.9 370.68 179.889C387.151 163.417 415.508 163.417 429.668 163.419C429.9 163.423 426.8 196.152 473.223 193.964Z" fill="#FFFC12"></path>
<path d="M127.228 142.862C126.601 142.477 125.901 142.224 125.172 142.118C124.444 142.012 123.701 142.056 122.99 142.246C122.279 142.437 121.614 142.77 121.036 143.227C120.458 143.683 119.979 144.252 119.628 144.899C118.993 146.175 118.866 147.646 119.273 149.012C119.679 150.379 120.59 151.54 121.82 152.261L128.058 156.088L102.829 153.046C100.029 152.659 96.3471 153.974 96.1201 157.146C95.9526 158.359 96.2017 159.594 96.8267 160.647C97.4518 161.701 98.4158 162.511 99.5611 162.946C99.5493 162.973 99.5409 163.002 99.5361 163.031C99.5361 163.052 99.5361 163.072 99.5361 163.093L95.2191 162.493C94.4241 162.383 93.6147 162.452 92.8493 162.692C92.0839 162.933 91.3816 163.341 90.7928 163.887C90.204 164.432 89.7436 165.101 89.4447 165.846C89.1457 166.59 89.0157 167.392 89.0641 168.193C89.1679 169.469 89.7094 170.669 90.5969 171.592C91.4844 172.514 92.6633 173.101 93.934 173.254L95.7711 173.509C95.7886 173.567 95.8164 173.622 95.8531 173.67C94.5848 173.784 93.3973 174.341 92.4992 175.244C91.6012 176.147 91.0502 177.337 90.9431 178.606C90.873 180.03 91.3463 181.428 92.2673 182.516C93.1883 183.604 94.4882 184.302 95.9041 184.469L100.419 185.093C100.348 185.129 100.287 185.182 100.241 185.247C100.195 185.312 100.164 185.387 100.153 185.466C100.144 185.56 100.163 185.655 100.207 185.739C99.1244 186.148 98.2011 186.893 97.5724 187.865C96.9436 188.836 96.6425 189.984 96.7131 191.139C96.8167 192.415 97.358 193.615 98.2453 194.537C99.1327 195.459 100.312 196.046 101.582 196.199L140.082 201.522C145.468 202.267 150.953 201.386 155.834 198.993C160.716 196.6 164.772 192.804 167.482 188.091L176.207 172.916L127.228 142.862Z" fill="#E98862"></path>
<g opacity="0.2">
<path opacity="0.2" d="M124.518 166.08C124.499 166.209 124.431 166.326 124.327 166.405C124.223 166.484 124.093 166.52 123.963 166.504L99.9732 163.581C99.8415 163.565 99.7215 163.497 99.6398 163.393C99.558 163.288 99.5211 163.156 99.5371 163.024C99.5532 162.892 99.6209 162.772 99.7254 162.691C99.8298 162.609 99.9624 162.572 100.094 162.588L124.084 165.511C124.149 165.519 124.212 165.54 124.27 165.572C124.327 165.604 124.377 165.647 124.417 165.699C124.458 165.751 124.488 165.81 124.506 165.873C124.523 165.937 124.528 166.003 124.52 166.068L124.518 166.08Z" fill="#0C0C0C"></path>
</g>
<g opacity="0.2">
<path opacity="0.2" d="M123.52 176.7C123.501 176.829 123.433 176.946 123.329 177.025C123.225 177.104 123.095 177.14 122.965 177.124L96.1931 173.861C96.1279 173.853 96.0649 173.832 96.0077 173.8C95.9505 173.768 95.9002 173.725 95.8598 173.673C95.8193 173.621 95.7893 173.562 95.7717 173.499C95.7541 173.435 95.7491 173.369 95.7571 173.304C95.7774 173.174 95.8462 173.057 95.9496 172.976C96.053 172.895 96.1833 172.856 96.3141 172.868L123.086 176.131C123.151 176.139 123.214 176.16 123.272 176.192C123.329 176.224 123.379 176.267 123.42 176.319C123.46 176.371 123.49 176.43 123.508 176.493C123.525 176.557 123.53 176.623 123.522 176.688L123.52 176.7Z" fill="#0C0C0C"></path>
</g>
<g opacity="0.2">
<path opacity="0.2" d="M122.506 188.2C122.487 188.329 122.419 188.446 122.315 188.525C122.211 188.604 122.081 188.64 121.951 188.624L100.595 186.024C100.463 186.008 100.344 185.94 100.262 185.836C100.18 185.731 100.143 185.599 100.159 185.467C100.175 185.335 100.243 185.215 100.347 185.134C100.452 185.052 100.584 185.015 100.716 185.031L122.072 187.631C122.137 187.639 122.2 187.66 122.258 187.692C122.315 187.724 122.365 187.767 122.406 187.819C122.446 187.871 122.476 187.93 122.494 187.993C122.511 188.057 122.516 188.123 122.508 188.188L122.506 188.2Z" fill="#0C0C0C"></path>
</g>
<path d="M64.4421 222.703C99.4957 222.703 127.912 194.286 127.912 159.233C127.912 124.179 99.4957 95.7629 64.4421 95.7629C29.3886 95.7629 0.972168 124.179 0.972168 159.233C0.972168 194.286 29.3886 222.703 64.4421 222.703Z" fill="#FFFFFF"></path>
<g opacity="0.1">
<path opacity="0.1" d="M64.442 209.549C92.2308 209.549 114.758 187.022 114.758 159.233C114.758 131.444 92.2308 108.917 64.442 108.917C36.6533 108.917 14.126 131.444 14.126 159.233C14.126 187.022 36.6533 209.549 64.442 209.549Z" fill="#292A2E"></path>
</g>
<path d="M61.079 183.377L60.814 174.721C65.495 174.957 68.999 174.307 71.849 172.344C75.265 169.99 75.791 167.537 73.901 164.795C69.628 158.595 53.801 169.669 46.301 158.795C41.483 151.805 43.257 144.015 50.894 138.752C53.0416 137.225 55.4958 136.185 58.0862 135.702C60.6766 135.22 63.3409 135.307 65.894 135.959L64.9611 144.091C61.3971 143.608 58.817 143.839 56.301 145.573C53.401 147.573 52.634 149.824 54.501 152.532C58.461 158.278 74.023 146.814 81.962 158.332C86.73 165.252 85.6001 173.414 76.7791 179.493C72.141 182.538 66.602 183.909 61.079 183.377V183.377ZM43.479 135.152L49.3571 131.101L55.338 139.779L49.459 143.831L43.479 135.152ZM72.425 177.152L78.304 173.101L84.866 182.623L78.9871 186.675L72.425 177.152Z" fill="white"></path>
<path d="M130.3 157.578L121.82 152.261C120.59 151.54 119.679 150.379 119.273 149.013C118.866 147.646 118.993 146.176 119.628 144.9C119.979 144.252 120.458 143.683 121.036 143.227C121.614 142.771 122.278 142.437 122.99 142.246C123.701 142.056 124.444 142.012 125.172 142.118C125.901 142.224 126.601 142.477 127.228 142.862" fill="#E98862"></path>
<path d="M453.479 292.692L427.107 270.837C426.54 270.367 425.883 270.018 425.177 269.81C424.471 269.603 423.73 269.541 422.999 269.63C422.268 269.718 421.563 269.954 420.926 270.324C420.29 270.694 419.736 271.19 419.297 271.781C418.487 272.955 418.153 274.393 418.362 275.804C418.572 277.215 419.31 278.493 420.427 279.381L426.062 284.051L452.584 297.786L453.479 292.692Z" fill="#E98862"></path>
<path d="M426.062 284.048L401.515 277.473C398.799 276.694 394.967 277.473 394.295 280.581C393.958 281.759 394.03 283.016 394.499 284.147C394.969 285.279 395.808 286.218 396.88 286.811C396.866 286.835 396.855 286.86 396.847 286.886C396.845 286.907 396.845 286.927 396.847 286.948L392.658 285.748C391.886 285.527 391.075 285.48 390.283 285.61C389.491 285.741 388.737 286.045 388.077 286.502C387.417 286.959 386.867 287.557 386.465 288.253C386.064 288.948 385.823 289.724 385.758 290.524C385.68 291.802 386.046 293.068 386.794 294.106C387.542 295.145 388.627 295.893 389.864 296.224L391.647 296.735C391.656 296.793 391.674 296.849 391.703 296.901C390.431 296.836 389.177 297.222 388.161 297.99C387.144 298.758 386.432 299.86 386.147 301.101C385.877 302.5 386.149 303.949 386.907 305.156C387.665 306.363 388.852 307.236 390.23 307.601L394.612 308.857C394.537 308.883 394.469 308.927 394.414 308.985C394.359 309.042 394.318 309.112 394.296 309.189C394.274 309.281 394.279 309.377 394.311 309.466C393.182 309.718 392.163 310.325 391.404 311.197C390.644 312.07 390.183 313.162 390.089 314.315C390.011 315.593 390.378 316.858 391.126 317.897C391.874 318.936 392.958 319.684 394.195 320.015L431.552 330.721C436.778 332.219 442.332 332.122 447.503 330.442C452.673 328.762 457.225 325.577 460.573 321.294L471.354 307.504L426.062 284.048Z" fill="#E98862"></path>
<g opacity="0.2">
<path opacity="0.2" d="M421.145 293.439C421.108 293.564 421.024 293.67 420.91 293.734C420.796 293.798 420.661 293.815 420.535 293.781L397.2 287.5C397.072 287.465 396.963 287.381 396.897 287.266C396.831 287.151 396.813 287.015 396.847 286.886C396.882 286.758 396.966 286.649 397.081 286.583C397.196 286.517 397.333 286.499 397.461 286.534L420.797 292.816C420.925 292.851 421.034 292.935 421.1 293.05C421.166 293.164 421.183 293.301 421.149 293.429L421.145 293.439Z" fill="#0C0C0C"></path>
</g>
<g opacity="0.2">
<path opacity="0.2" d="M418.658 303.808C418.621 303.933 418.537 304.039 418.423 304.102C418.309 304.166 418.175 304.183 418.049 304.149L392.005 297.138C391.877 297.103 391.768 297.019 391.702 296.904C391.636 296.789 391.618 296.653 391.653 296.525C391.691 296.399 391.776 296.293 391.89 296.228C392.004 296.162 392.138 296.143 392.266 296.173L418.309 303.184C418.372 303.201 418.432 303.23 418.484 303.27C418.536 303.31 418.58 303.36 418.613 303.417C418.645 303.474 418.667 303.537 418.675 303.602C418.684 303.667 418.679 303.734 418.662 303.797L418.658 303.808Z" fill="#0C0C0C"></path>
</g>
<g opacity="0.2">
<path opacity="0.2" d="M416.03 315.053C415.993 315.178 415.909 315.284 415.795 315.348C415.681 315.412 415.546 315.429 415.42 315.395L394.646 309.803C394.583 309.786 394.523 309.757 394.471 309.717C394.419 309.676 394.375 309.627 394.343 309.57C394.31 309.513 394.289 309.45 394.28 309.385C394.272 309.32 394.276 309.253 394.293 309.19C394.31 309.127 394.339 309.067 394.379 309.015C394.42 308.963 394.47 308.919 394.526 308.887C394.583 308.854 394.646 308.833 394.711 308.824C394.776 308.816 394.843 308.82 394.906 308.837L415.68 314.429C415.743 314.446 415.803 314.475 415.855 314.515C415.907 314.556 415.951 314.605 415.984 314.662C416.016 314.719 416.038 314.782 416.046 314.847C416.055 314.912 416.05 314.979 416.033 315.042L416.03 315.053Z" fill="#0C0C0C"></path>
</g>
<path d="M434.4 340.418L604.065 389.393C610.899 391.207 618.107 391.052 624.856 388.946C631.606 386.839 637.623 382.868 642.212 377.489C646.802 372.11 649.777 365.544 650.795 358.547C651.813 351.55 650.832 344.407 647.965 337.944L590.121 200.144C581.721 181.213 550.352 161.785 531.421 170.184C512.49 178.583 513.164 211.626 521.562 230.557L556.343 303.022L450.556 278.566L434.4 340.418Z" fill="#FFFC12"></path>
<path d="M583.939 384.083C583.892 384.083 583.846 384.076 583.801 384.063L434.264 340.9C434.139 340.864 434.033 340.78 433.968 340.667C433.904 340.553 433.886 340.419 433.919 340.293L450.082 278.44C450.115 278.313 450.196 278.204 450.309 278.137C450.421 278.069 450.555 278.049 450.682 278.079L555.452 302.3L521.121 230.773C521.073 230.655 521.071 230.523 521.117 230.404C521.163 230.285 521.252 230.188 521.367 230.132C521.482 230.077 521.614 230.068 521.736 230.107C521.857 230.146 521.959 230.229 522.021 230.341L556.8 302.8C556.84 302.885 556.855 302.979 556.844 303.072C556.833 303.165 556.796 303.253 556.737 303.326C556.679 303.399 556.601 303.454 556.512 303.484C556.424 303.515 556.329 303.521 556.237 303.5L450.923 279.153L435.006 340.065L584.078 383.1C584.194 383.133 584.295 383.207 584.361 383.308C584.427 383.41 584.454 383.531 584.437 383.651C584.42 383.771 584.36 383.88 584.268 383.959C584.177 384.038 584.06 384.082 583.939 384.081V384.083Z" fill="#0C0C0C"></path>
<path d="M573.819 307.32C573.783 307.32 573.747 307.316 573.712 307.308L556.247 303.508C556.117 303.48 556.004 303.401 555.932 303.289C555.861 303.178 555.836 303.042 555.865 302.913C555.893 302.783 555.971 302.67 556.083 302.598C556.195 302.526 556.33 302.502 556.46 302.53L573.925 306.33C574.046 306.356 574.153 306.426 574.226 306.526C574.298 306.626 574.331 306.749 574.318 306.872C574.305 306.995 574.246 307.109 574.154 307.192C574.062 307.274 573.943 307.319 573.819 307.319V307.32Z" fill="#0C0C0C"></path>
<path d="M357.051 236.472L354.823 207.633" stroke="#0C0C0C" stroke-linecap="round" stroke-linejoin="round"></path>
<path d="M270.835 355.17C265.786 355.177 260.788 354.161 256.142 352.185C251.495 350.209 247.297 347.312 243.8 343.67L117.8 212.679L171.851 160.684L272.991 265.828L372.065 178.681L421.6 234.995L295.6 345.83C288.761 351.859 279.953 355.181 270.835 355.17V355.17Z" fill="#FFFC12"></path>
<path d="M358.32 253.74L357.328 253.865L361.481 286.817L362.473 286.692L358.32 253.74Z" fill="#0C0C0C"></path>
</svg>